<?xml version="1.0" encoding="utf-8"?>
<!-- Generator: Adobe Illustrator 26.0.0, SVG Export Plug-In . SVG Version: 6.00 Build 0)  -->
<svg version="1.1" id="Layer_1" xmlns="http://www.w3.org/2000/svg" xmlns:xlink="http://www.w3.org/1999/xlink" x="0px" y="0px"
	 viewBox="0 0 500 500" style="enable-background:new 0 0 500 500;" xml:space="preserve">
<style type="text/css">
	.st0{fill:#EBEBEB;}
	.st1{fill:#E0E0E0;}
	.st2{fill:#F5F5F5;}
	.st3{fill:#FFFFFF;}
	.st4{fill:none;}
	.st5{fill:#FAFAFA;}
	.st6{fill:#263238;}
	.st7{fill:#FFC100;}
	.st8{fill:#455A64;}
	.st9{opacity:0.6;}
	.st10{opacity:0.3;}
	.st11{fill:#FFBE9D;}
	.st12{fill:#EB996E;}
</style>
<g id="freepik--background-complete--inject-2">
	<path class="st0" d="M427.2,245.6c0,0-8.1-0.6-7.4,17.6s2.6,27.9,2.6,27.9s-0.2,4-3.4,3.2s-9-4.7-11.9-1.8s-2,7.7,2,13.2
		s12.3,17.9,13.1,19s1,3.2-1.2,3s-17.2-5.3-19.2,2s11.7,20.8,13.1,22.3s1.5,2.5,1,3.4s-5.5-1.3-9.8-2.5s-9.5-2-10.3,2.3
		s5.2,16.8,27.8,30l10.8,5.4l10.3-6.5c21.1-15.3,25.8-28.4,24.6-32.6s-6.4-2.9-10.5-1.2s-8.8,4.4-9.5,3.5s-0.7-1.8,0.6-3.5
		s13.5-16.5,10.9-23.5s-17.1-0.5-19.3,0s-2.1-1.7-1.5-2.8s7.7-14.4,11.1-20.2s4-10.6,0.7-13.4s-8.6,1.9-11.7,3s-3.7-2.9-3.7-2.9
		s0.9-9.9-0.2-28s-9.3-16.7-9.3-16.7"/>
	<path class="st1" d="M427.8,262c0,0,0,0.1,0,0.4s0,0.6,0.1,1.1c0.1,1,0.2,2.5,0.3,4.3c0.2,3.7,0.6,9.1,0.9,15.8
		c0.7,13.4,1.6,31.9,2.5,52.3s1.7,38.9,2.4,52.3c0.3,6.7,0.6,12.1,0.8,15.8c0.1,1.9,0.2,3.3,0.2,4.3c0,0.5,0,0.9,0,1.1
		c0,0.1,0,0.3,0,0.4c0,0,0-0.1,0-0.4s0-0.6-0.1-1.1c-0.1-1-0.2-2.5-0.3-4.3c-0.2-3.7-0.6-9.1-0.9-15.8c-0.7-13.4-1.6-31.9-2.5-52.3
		s-1.7-38.9-2.4-52.3c-0.3-6.7-0.6-12.1-0.8-15.8c-0.1-1.9-0.2-3.3-0.2-4.3c0-0.5,0-0.9,0-1.1C427.8,262.3,427.8,262.1,427.8,262z"
		/>
	<path class="st1" d="M415.1,298.5c0.2,0.2,0.5,0.3,0.7,0.6c0.4,0.4,1,1,1.7,1.7c1.4,1.4,3.4,3.4,5.4,5.7l5.3,5.8l1.6,1.8
		c0.2,0.2,0.4,0.4,0.6,0.7c-0.2-0.2-0.5-0.3-0.7-0.5c-0.4-0.4-1-1-1.7-1.7c-1.4-1.4-3.3-3.5-5.4-5.7l-5.4-5.8l-1.6-1.7
		C415.5,299,415.3,298.8,415.1,298.5z"/>
	<path class="st1" d="M431.5,314.3c-0.1-0.1,3.9-4.2,8.9-9.3s9.1-9.1,9.2-9s-3.9,4.2-8.9,9.3S431.6,314.4,431.5,314.3z"/>
	<path class="st1" d="M431.5,345.7c0.2-0.2,0.5-0.4,0.8-0.5l2.1-1.2c1.8-1,4.3-2.4,6.9-4s5-3.2,6.8-4.3l2-1.4
		c0.2-0.2,0.5-0.3,0.8-0.5c-0.2,0.2-0.4,0.4-0.7,0.6c-0.5,0.4-1.1,0.9-2,1.5c-1.7,1.2-4,2.8-6.7,4.5s-5.2,3-7,3.9
		c-0.9,0.5-1.7,0.8-2.2,1.1C432,345.5,431.7,345.6,431.5,345.7z"/>
	<path class="st1" d="M413.5,334.7c0.3,0.1,0.5,0.2,0.8,0.4c0.5,0.2,1.1,0.6,2,1.1c1.6,0.9,3.9,2.3,6.4,3.7s4.7,2.8,6.4,3.9l1.9,1.2
		c0.2,0.1,0.5,0.3,0.7,0.5c-0.3-0.1-0.5-0.2-0.8-0.4c-0.5-0.2-1.1-0.6-2-1.1c-1.6-0.9-3.9-2.3-6.4-3.7s-4.7-2.8-6.3-3.8
		c-0.8-0.5-1.5-0.9-1.9-1.2C413.9,335.1,413.7,334.9,413.5,334.7z"/>
	<path class="st1" d="M410,362.4c0.3,0.1,0.6,0.3,1,0.5l2.5,1.4c2.1,1.2,5,2.9,8.2,4.7s6.1,3.6,8.2,4.8l2.5,1.5
		c0.3,0.2,0.6,0.4,0.9,0.6c-0.3-0.1-0.7-0.3-1-0.5l-2.5-1.4c-2.1-1.2-5-2.9-8.2-4.7s-6.1-3.6-8.2-4.8l-2.5-1.5
		C410.5,362.8,410.3,362.6,410,362.4z"/>
	<path class="st1" d="M432.7,375.5c0.3-0.2,0.6-0.5,1-0.6l2.6-1.6c2.2-1.4,5.3-3.2,8.6-5.4s6.3-4.2,8.4-5.7l2.5-1.8
		c0.3-0.2,0.6-0.4,1-0.6c-0.3,0.3-0.6,0.5-0.9,0.7c-0.6,0.5-1.4,1.1-2.5,1.9c-2.1,1.5-5,3.6-8.4,5.8s-6.4,4-8.7,5.3
		c-1.1,0.6-2.1,1.2-2.7,1.5C433.4,375.2,433.1,375.3,432.7,375.5z"/>
	<polygon class="st1" points="449,394.2 419,394.2 428.8,468.3 439.2,468.3 	"/>
	<path class="st2" d="M420.6,403.3c0,0,0,0.1,0.2,0.3c0.2,0.2,0.4,0.4,0.7,0.5c1.1,0.4,2.2,0.2,3.2-0.4c1.2-0.7,2.3-2,3.9-2.6
		c1.8-0.6,3.7-0.5,5.5,0.1c1.8,0.6,3.5,1.5,5.1,2.5c1.3,0.8,2.7,1.6,4.2,2.2c1,0.4,2,0.7,3.1,0.9c0.3,0,0.6,0.1,0.9,0.1
		c0.2,0,0.3,0,0.3,0c-1.4-0.2-2.8-0.6-4.1-1.2c-1.4-0.7-2.8-1.5-4.1-2.3c-1.6-1.1-3.4-1.9-5.2-2.6c-1.9-0.7-3.9-0.7-5.8-0.1
		c-0.8,0.3-1.5,0.8-2.2,1.4c-0.5,0.5-1.1,0.9-1.7,1.3c-0.9,0.6-1.9,0.8-2.9,0.5C421.2,403.8,420.9,403.6,420.6,403.3z"/>
	<path class="st2" d="M421.7,417c0,0,0.2-0.3,0.7-0.8c0.7-0.7,1.5-1.2,2.4-1.5c1.3-0.5,2.8-0.7,4.2-0.7c1.8,0.1,3.5,0.4,5.2,0.7
		c1.8,0.3,3.6,0.4,5.3,0.2c1.5-0.2,2.9-0.6,4.2-1.2c0.9-0.4,1.7-0.9,2.5-1.5c0.3-0.2,0.6-0.4,0.8-0.7c-1.1,0.7-2.3,1.4-3.5,1.9
		c-1.3,0.5-2.7,0.9-4.1,1.1c-1.7,0.2-3.5,0.1-5.2-0.3c-1.7-0.3-3.5-0.6-5.3-0.7c-1.5,0-2.9,0.2-4.3,0.8c-0.9,0.4-1.8,1-2.4,1.7
		c-0.2,0.2-0.3,0.4-0.5,0.7C421.7,416.9,421.7,416.9,421.7,417z"/>
	<path class="st2" d="M445.6,424.2c-0.2-0.2-0.5-0.3-0.8-0.4c-0.8-0.3-1.6-0.5-2.5-0.5c-1.3-0.1-2.5,0-3.8,0.2
		c-1.4,0.2-2.9,0.6-4.5,0.9c-1.5,0.4-3,0.5-4.5,0.5c-1.2,0-2.4-0.3-3.5-0.8c-1-0.5-1.9-1.2-2.7-2c0.1,0.3,0.3,0.6,0.5,0.8
		c0.6,0.6,1.2,1.2,2,1.5c1.2,0.5,2.4,0.8,3.7,0.9c1.5,0,3.1-0.1,4.6-0.5c1.6-0.3,3.1-0.7,4.5-1c1.2-0.2,2.4-0.3,3.7-0.3
		C443.4,423.7,444.5,423.9,445.6,424.2z"/>
	<path class="st2" d="M424.3,434.5c0.9-0.4,1.9-0.5,2.9-0.3c1,0.3,2,0.6,3,1.1c3.6,1.7,7.8,1.5,11.1-0.6c0.6-0.4,1.2-0.9,1.8-1.4
		c0.4-0.4,0.5-0.6,0.5-0.6c-0.8,0.6-1.6,1.2-2.5,1.7c-2.1,1.2-4.6,1.7-7,1.5c-2.8-0.2-5-1.9-7-2.1c-0.8-0.1-1.5-0.1-2.3,0.2
		C424.7,434.2,424.5,434.3,424.3,434.5z"/>
	<path class="st2" d="M426,448.8c0.9,0,1.7-0.2,2.5-0.5c1.5-0.5,3.4-1.7,5.5-2.5c1-0.4,2.1-0.6,3.2-0.7c0.9,0,1.8,0.2,2.6,0.6
		c0.7,0.4,1.4,0.9,1.9,1.6c0,0,0-0.2-0.3-0.6c-0.4-0.5-0.8-1-1.4-1.3c-0.8-0.5-1.8-0.7-2.7-0.7c-1.2,0-2.3,0.2-3.4,0.7
		c-2.3,0.9-4.1,2.1-5.5,2.7S426,448.7,426,448.8z"/>
	<path class="st2" d="M427.5,455.4c0.6,0.3,1.2,0.5,1.9,0.6c3.1,0.8,6.3,1.1,9.6,0.9c0.7,0,1.3-0.1,2-0.2c0-0.1-3,0-6.8-0.4
		S427.5,455.2,427.5,455.4z"/>
	<polygon class="st1" points="461.7,34.3 461.7,114 358.7,114 355,34.8 	"/>
	<rect x="355" y="34.7" class="st3" width="102.9" height="79.2"/>
	<path class="st1" d="M458.3,114.3H354.6v-80h103.7V114.3z M355.4,113.6h102.2V35.1H355.4V113.6z"/>
	<rect x="366.2" y="42.9" class="st3" width="80.6" height="60.7"/>
	<path class="st1" d="M446.8,42.9h-1.5h-4.4L424.3,43l-58.2,0.1l0.2-0.2c0,18.2,0,38.8,0,60.6l0,0l-0.2-0.2h80.6l-0.2,0.2
		c0-18.3,0.1-33.5,0.1-44c0-5.3,0-9.4,0-12.3c0-1.4,0-2.5,0-3.2S446.7,42.9,446.8,42.9c-0.1,0-0.1,0.4-0.1,1.1s0,1.8,0,3.2
		c0,2.8,0,7,0,12.2c0,10.6,0,25.8,0.1,44.2v0.2h-0.2H366h0v-0.2l0,0c0-21.8,0-42.5,0-60.7v-0.2h0.2l58.3,0.1H441h4.4h1.5L446.8,42.9
		z"/>
	<path class="st1" d="M355,34.5c0.6,0.3,1.2,0.7,1.7,1.1c1,0.7,2.5,1.7,4,2.8s2.9,2.2,3.9,3c0.6,0.4,1.1,0.9,1.5,1.4
		c-0.6-0.3-1.2-0.7-1.7-1.2l-4-2.9l-4-2.9C356,35.4,355.5,35,355,34.5z"/>
	<path class="st1" d="M458,34.7c-1.7,1.5-3.6,3-5.5,4.3c-1.8,1.4-3.7,2.7-5.7,3.9c1.7-1.5,3.5-2.9,5.5-4.2
		C454.1,37.2,456,35.9,458,34.7z"/>
	<line class="st4" x1="458" y1="114" x2="446.4" y2="103.5"/>
	<path class="st1" d="M446.4,103.5c2.1,1.6,4,3.3,5.9,5.1c2,1.7,3.9,3.5,5.7,5.4c-2.1-1.6-4.1-3.3-6-5.1
		C450,107.2,448.2,105.4,446.4,103.5z"/>
	<path class="st1" d="M355,114c1.7-1.8,3.5-3.5,5.4-5.1c1.8-1.7,3.7-3.3,5.7-4.8c-1.7,1.8-3.5,3.5-5.4,5.1
		C358.9,110.9,357,112.5,355,114z"/>
	<path class="st2" d="M425.9,72.7c-1.1,5.3-6.3,8.6-11.5,7.5c-5.3-1.1-8.6-6.3-7.5-11.5c1.1-5.3,6.3-8.6,11.5-7.5
		C423.7,62.2,427.1,67.4,425.9,72.7C425.9,72.6,425.9,72.6,425.9,72.7z"/>
	<path class="st1" d="M413.2,79.9c0.2-0.9,0.5-1.8,0.9-2.7c0.7-2.1,1-4.3,0.9-6.6c-0.2-2.2-1.2-4.2-2.9-5.7
		c-0.7-0.6-1.5-1.1-2.3-1.5c1,0,1.9,0.4,2.6,1.1c1.9,1.5,3,3.7,3.3,6.1c0.2,2.3-0.2,4.7-1.1,6.8C414.3,78.3,413.8,79.1,413.2,79.9z"
		/>
	<path class="st1" d="M425.8,69.4c0,0.2-2.6-0.7-5.7,0.2s-4.7,3.1-4.9,2.9s0.2-0.7,1-1.5c1-1,2.3-1.8,3.7-2.2
		c1.4-0.4,2.8-0.5,4.2-0.2C425.3,69,425.9,69.4,425.8,69.4z"/>
	<path class="st1" d="M421.4,69c-0.1,0-0.1-0.7-0.4-1.6c-0.7-2.3-3.2-3.6-5.5-2.8c-0.3,0.1-0.6,0.2-0.8,0.4c-0.9,0.5-1.3,1-1.4,0.9
		s0.2-0.7,1.1-1.4c2.1-1.5,4.9-1,6.4,1.1c0.4,0.5,0.6,1.1,0.7,1.7C421.8,68.3,421.5,69,421.4,69z"/>
	<path class="st1" d="M418.3,70c-0.2,0-0.1-1.4-0.5-2.9s-1.1-2.7-0.9-2.8s1.2,0.9,1.7,2.7S418.5,70,418.3,70z"/>
	<path class="st1" d="M418.2,66.9c0,0.2-0.9,0.3-1.6,0.7s-1.5,1-1.6,0.8s0.3-0.9,1.3-1.5S418.3,66.8,418.2,66.9z"/>
	<path class="st2" d="M402.7,71.5c3.1,2.6,3.5,7.3,0.9,10.4s-7.3,3.5-10.4,0.9c-3.1-2.6-3.5-7.3-0.9-10.4c0,0,0,0,0,0
		C394.9,69.3,399.5,68.9,402.7,71.5z"/>
	<path class="st1" d="M403,82.6c-0.5-0.5-1-1-1.5-1.5c-1.1-1.2-2.5-2.2-4.1-2.9c-1.5-0.6-3.3-0.7-4.9-0.1c-0.6,0.3-1.2,0.6-1.8,1
		c0,0,0.4-0.8,1.7-1.4c1.7-0.7,3.6-0.7,5.2,0c1.6,0.7,3,1.8,4.1,3.2C402.3,81.3,402.7,81.9,403,82.6z"/>
	<path class="st1" d="M400.5,70.4c-0.9,1.2-1.5,2.5-1.9,3.9c-0.2,1.4-0.1,2.9,0.2,4.3c-0.1,0-0.4-0.4-0.6-1.2
		c-0.6-2.1-0.2-4.4,1.3-6.1C400,70.6,400.4,70.4,400.5,70.4z"/>
	<path class="st1" d="M398.6,73.2c0,0.1-0.5-0.2-1.2-0.3c-1.8-0.3-3.5,0.9-3.9,2.7c0,0.2-0.1,0.4-0.1,0.7c0,0.8,0.2,1.2,0.1,1.3
		s-0.4-0.4-0.5-1.3c-0.1-1.2,0.3-2.3,1.2-3.1c0.9-0.7,2.1-1,3.2-0.7C398.2,72.7,398.6,73.2,398.6,73.2z"/>
	<path class="st1" d="M398.1,75.6c-0.1,0.1-0.9-0.4-2.1-0.8s-2.2-0.2-2.2-0.4c0.7-0.4,1.6-0.5,2.4-0.2
		C397.5,74.7,398.3,75.5,398.1,75.6z"/>
	<path class="st1" d="M396.1,74.6c0.1,0.1-0.1,0.7-0.1,1.3s0.1,1.3,0,1.4s-0.5-0.5-0.5-1.4S396,74.5,396.1,74.6z"/>
	<path class="st0" d="M403,69c-2.6-1.7-4.2-4.7-5.2-7.7c-1-3-1.1-6.2-0.1-9.2c2.9,1.3,5.2,3.7,6.3,6.7C405,61.8,404.4,66.2,403,69"
		/>
	<path class="st3" d="M399.9,56.9c1.2,3.8,2.1,7.7,2.8,11.6"/>
	<path class="st1" d="M402.7,68.5c-0.2-0.5-0.4-1.1-0.5-1.7c-0.3-1.2-0.6-2.6-1-4.1s-0.7-2.9-1-4.1c-0.2-0.6-0.3-1.1-0.4-1.7
		c0.3,0.5,0.5,1.1,0.6,1.6c0.3,1,0.7,2.5,1.1,4.1c0.4,1.6,0.7,3.1,0.9,4.1C402.7,67.3,402.7,67.9,402.7,68.5z"/>
	<path class="st0" d="M409.6,82.2c3-0.6,6.3,0.4,9.1,1.7c2.8,1.4,5.1,3.6,6.6,6.4c-3,1.1-6.3,1-9.2-0.3
		C413.3,88.7,410.6,85.2,409.6,82.2"/>
	<path class="st3" d="M420.2,88.6c-3.5-1.9-6.9-4-10.2-6.2"/>
	<path class="st1" d="M410,82.3c0.5,0.2,1.1,0.5,1.5,0.9l3.6,2.2l3.6,2.2c0.5,0.3,1,0.6,1.5,1c-0.6-0.2-1.1-0.4-1.6-0.7
		c-1-0.5-2.3-1.2-3.7-2.1s-2.7-1.7-3.5-2.3C410.9,83.2,410.5,82.8,410,82.3z"/>
	<path class="st0" d="M406.6,83.7c0.4,1.8,0.3,3.8-0.5,5.5c-0.6,1.8-1.8,3.3-3.4,4.3c-0.9-1.7-1-3.7-0.4-5.5
		C403.2,86.1,404.7,84.5,406.6,83.7"/>
	<path class="st3" d="M403.5,90.4c0.9-2.2,2-4.3,3.1-6.4"/>
	<path class="st1" d="M406.6,83.9c-0.4,1.1-0.9,2.2-1.5,3.2c-0.5,1.1-1,2.2-1.6,3.2c0.3-1.2,0.7-2.3,1.3-3.4
		C405.2,85.9,405.8,84.9,406.6,83.9z"/>
	<rect x="92.6" y="248.2" class="st1" width="110.9" height="209.6"/>
	<rect x="59.7" y="248.2" class="st2" width="110.9" height="209.6"/>
	<path class="st1" d="M162.4,291.4H67.2v-33.2h95.2L162.4,291.4z M68.4,290.2h92.8v-30.9H68.4L68.4,290.2z"/>
	<path class="st0" d="M97.4,258.8h36.1l0,0v1.7c0,2.7-2.2,5-4.9,5c0,0,0,0,0,0h-26.2c-2.7,0-4.9-2.2-4.9-5l0,0L97.4,258.8
		L97.4,258.8z"/>
	<path class="st1" d="M162.4,333.6H67.2v-33.2h95.2L162.4,333.6z M68.4,332.4h92.8v-30.9H68.4L68.4,332.4z"/>
	<path class="st0" d="M97.4,301h36.1l0,0v1.7c0,2.7-2.2,5-4.9,5c0,0,0,0,0,0h-26.2c-2.7,0-4.9-2.2-4.9-5l0,0L97.4,301L97.4,301z"/>
	<path class="st1" d="M162.4,375.8H67.2v-33.2h95.2L162.4,375.8z M68.4,374.6h92.8v-30.9H68.4L68.4,374.6z"/>
	<path class="st0" d="M97.4,343.1h36.1l0,0v1.7c0,2.7-2.2,5-4.9,5c0,0,0,0,0,0h-26.2c-2.7,0-4.9-2.2-4.9-5l0,0L97.4,343.1
		L97.4,343.1z"/>
	<path class="st1" d="M162.4,418H67.2v-33.2h95.2L162.4,418z M68.4,416.8h92.8v-30.9H68.4L68.4,416.8z"/>
	<path class="st0" d="M97.4,385.4h36.1l0,0v1.6c0,2.7-2.2,5-4.9,5c0,0,0,0,0,0h-26.2c-2.7,0-4.9-2.2-4.9-5l0,0V385.4L97.4,385.4z"/>
	<rect x="54.8" y="240.4" class="st0" width="120.4" height="10.4"/>
	<rect x="175.2" y="240.4" class="st1" width="36.2" height="10.4"/>
	<rect x="59.7" y="457.8" class="st1" width="5.8" height="10.7"/>
	<rect x="95.7" y="457.8" class="st1" width="5.8" height="10.7"/>
	<rect x="161.4" y="457.8" class="st1" width="5.8" height="10.7"/>
	<rect x="194.3" y="457.8" class="st1" width="5.8" height="10.7"/>
	<polygon class="st1" points="143.4,212.7 154.6,242.1 147.6,242.1 142,224 	"/>
	<polygon class="st0" points="105.1,185.5 101.2,241.9 141,242.8 145.5,185.5 	"/>
	<polygon class="st5" points="109.1,190 105.8,237 135.4,238.4 139.6,189.8 	"/>
	<polygon class="st1" points="115.6,196.7 113.2,229.7 129.5,229.7 132.4,196.7 	"/>
	<rect x="58.2" y="28.1" class="st1" width="83" height="137.4"/>
	<rect x="55.5" y="28.1" class="st0" width="83" height="137.4"/>
	<rect x="59" y="30.9" class="st5" width="76" height="131.9"/>
	<rect x="73.5" y="48.1" class="st0" width="46.7" height="97.6"/>
	<path class="st1" d="M73.5,111.1c-0.1-9.1,8.1-18,17.1-19.3c4.3-0.6,8.9,0.2,12.9-1.4c7.2-3,9.5-12.5,16.7-15.3l0.3,70.5h-47
		L73.5,111.1z"/>
	<polygon class="st2" points="250.7,441.2 250.7,468.9 291.2,468.9 335.8,468.9 335.8,441.2 	"/>
	<polygon class="st1" points="247.1,433.5 247.1,441.2 338.8,441.2 338.8,433.5 291.2,433.5 	"/>
	<polygon class="st1" points="293,468.9 335.8,468.9 335.8,441.2 338.8,441.2 338.8,433.5 291.2,433.5 291.2,440.5 	"/>
	<rect x="262.6" y="445.7" class="st1" width="17.2" height="4.2"/>
	<rect x="260.4" y="455.1" class="st3" width="22.1" height="8.8"/>
	<polygon class="st2" points="263.8,405.9 263.8,433.5 304.3,433.5 348.9,433.5 348.9,405.9 	"/>
	<polygon class="st1" points="260.2,398.1 260.2,405.9 351.9,405.9 351.9,398.1 304.3,398.1 	"/>
	<polygon class="st1" points="306,433.5 348.9,433.5 348.9,405.9 351.9,405.9 351.9,398.1 304.3,398.1 304.3,405.2 	"/>
	<rect x="275.7" y="410.4" class="st1" width="17.2" height="4.2"/>
	<rect x="273.5" y="419.7" class="st3" width="22.1" height="8.8"/>
</g>
<g id="freepik--Floor--inject-2">
	<path class="st6" d="M464.9,468.5c0,0.1-97.7,0.3-218.1,0.3s-218.1-0.1-218.1-0.3s97.6-0.3,218.1-0.3S464.9,468.4,464.9,468.5z"/>
</g>
<g id="freepik--Screen--inject-2">
	<path class="st3" d="M309.2,61.2h-25c-3.4,0.1-6.1,2.9-6.1,6.3V72c0.1,3.4-2.6,6.3-6,6.3c0,0,0,0,0,0h-48.7c-3.4-0.1-6.1-2.9-6-6.3
		v-4.6c0.1-3.4-2.6-6.3-6.1-6.3c0,0,0,0,0,0h-30.6c-10.8,0-19.6,8.8-19.6,19.6l-0.1,315.2c0,10.8,8.8,19.6,19.6,19.7c0,0,0,0,0,0
		l128.6,0.1c10.8,0,19.6-8.8,19.6-19.7l0.1-315.2C328.8,70,320,61.2,309.2,61.2z"/>
	<path class="st6" d="M309.2,61.2h0.7c0.7,0,1.3,0.1,2,0.2c2.6,0.3,5.1,1.2,7.4,2.5c1.7,1,3.2,2.2,4.5,3.6c1.6,1.7,2.9,3.7,3.7,5.9
		c1,2.5,1.5,5.3,1.5,8c0,2.9,0,6,0,9.3c0,26.2,0,64.1,0.1,110.9s0,102.5,0,164.4v29.4c0,2-0.2,4-0.8,6c-0.5,2-1.4,3.8-2.5,5.5
		c-1.1,1.7-2.5,3.2-4.1,4.5c-3.2,2.6-7.2,4.2-11.3,4.4c-4.1,0.1-8.2,0-12.4,0h-25h-51.4h-26.3H182c-4.5,0.3-9-1-12.8-3.5
		c-3.7-2.6-6.5-6.4-7.8-10.8c-0.6-2.2-0.9-4.4-0.8-6.6v-6.6c0-8.8,0-17.6,0-26.3c0-17.4,0-34.5,0-51.4c0-33.7,0-66.2,0-97.1
		s0-60.4,0.1-87.9c0-13.8,0-27,0-39.8v-4.8c0-0.8,0.1-1.6,0.1-2.4c0.1-0.8,0.2-1.6,0.4-2.3c0.7-3.1,2.2-5.9,4.2-8.3
		c4-4.7,9.9-7.3,16-7.1h17.1h12.3c1.4-0.1,2.8,0.3,3.9,1.1c1.1,0.8,2,1.9,2.4,3.2c0.4,1.3,0.5,2.6,0.4,3.9v2c0,0.6,0,1.2,0.1,1.9
		c0.2,1.2,0.7,2.3,1.5,3.2c0.8,0.9,1.8,1.6,3,1.9c0.6,0.1,1.2,0.2,1.8,0.2h8.9h25.9H270c0.9,0,1.8,0,2.7,0c0.9-0.1,1.7-0.4,2.4-0.8
		c1.4-0.9,2.4-2.3,2.8-4c0.1-0.8,0.2-1.5,0.1-2.3v-2.3c0-0.8,0-1.5,0.1-2.3c0.1-0.7,0.4-1.4,0.7-2.1c0.7-1.3,1.8-2.2,3.2-2.8
		c1.3-0.4,2.6-0.5,3.9-0.4h12.7h7.8L309.2,61.2l-2.7-0.1h-7.8h-12.8c-1.3-0.1-2.6,0-3.8,0.4c-1.3,0.5-2.3,1.5-3,2.7
		c-0.3,0.6-0.6,1.3-0.7,2.1c-0.1,0.7-0.1,1.5-0.1,2.3c0,0.8,0,1.6,0,2.3c0,0.8,0,1.6-0.2,2.4c-0.4,1.7-1.4,3.2-2.8,4.1
		c-0.8,0.5-1.6,0.8-2.5,0.9c-0.9,0.1-1.8,0-2.7,0h-46.3c-0.6,0-1.2,0-1.9-0.2c-1.2-0.3-2.4-1-3.2-2c-0.8-1-1.4-2.2-1.6-3.5
		c-0.1-0.6-0.1-1.3-0.1-1.9v-1.7c0.1-1.3,0-2.5-0.4-3.8c-0.4-1.2-1.2-2.3-2.3-3c-1.1-0.7-2.4-1.1-3.7-1h-29.4
		c-2.9-0.1-5.9,0.5-8.6,1.6c-2.7,1.2-5.2,3.1-7.1,5.4c-2,2.4-3.3,5.2-4,8.2c-0.2,0.8-0.3,1.5-0.4,2.3s-0.1,1.6-0.1,2.3v4.8
		c0,12.8,0,26.1,0,39.8c0,27.5,0,56.9,0,87.9s0,63.4,0,97.1V362c0,8.7,0,17.5,0,26.3v6.6c-0.1,2.2,0.2,4.4,0.8,6.5
		c1.3,4.2,3.9,7.9,7.6,10.5c3.7,2.5,8,3.7,12.4,3.5h39.5h51.4h25c4.1,0,8.3,0.1,12.3,0c4-0.2,7.9-1.7,11-4.3c1.5-1.3,2.9-2.8,4-4.4
		c1.1-1.7,1.9-3.5,2.4-5.4c0.5-1.9,0.8-3.9,0.7-5.9v-6c0-7.9,0-15.8,0-23.5c0-61.9,0.1-117.6,0.1-164.4s0.1-84.7,0.1-110.9
		c0-3.3,0-6.4,0-9.3c0.1-2.7-0.4-5.4-1.4-7.9c-0.9-2.2-2.1-4.1-3.7-5.8c-3.1-3.4-7.2-5.6-11.8-6.2c-0.7-0.1-1.3-0.2-2-0.2
		L309.2,61.2z"/>
	<path class="st6" d="M312.9,97.2c0,0.1-3.2,0.2-7.2,0.2s-7.3,0-7.3-0.1s3.2-0.2,7.3-0.2S312.9,97.1,312.9,97.2z"/>
	<path class="st6" d="M313,100.9c0,0.1-3.2,0.2-7.2,0.2s-7.3,0-7.3-0.1s3.2-0.2,7.3-0.2S313,100.9,313,100.9z"/>
	<path class="st6" d="M313,104.7c0,0.1-3.2,0.2-7.2,0.2s-7.3,0-7.3-0.1s3.2-0.2,7.3-0.2S313,104.6,313,104.7z"/>
	<path class="st6" d="M181,109h0.3h0.8l3.1-0.1l-0.1,0.1c0-0.7,0-1.4,0-2.2c0-0.4,0-0.8,0-1.3c0.1-0.5,0.5-0.9,1-1
		c0.5,0,0.9,0,1.5,0c0.6,0.1,1,0.6,1,1.2c0,1,0,2.1,0,3.3l-0.1-0.1h3.9l-0.1,0.2c0-1.6,0-3.2,0-4.9c0-0.4,0-0.8,0-1.2
		c0-0.4-0.2-0.7-0.5-0.9l-1.7-1.7l-1.6-1.6l-0.8-0.8c-0.2-0.3-0.5-0.5-0.8-0.6c-0.3-0.1-0.6,0-0.9,0.2c-0.2,0.2-0.5,0.5-0.7,0.7
		l-1.4,1.4c-0.9,0.9-1.8,1.8-2.5,2.6c-0.2,0.5-0.3,1-0.2,1.5v1.4c0,0.8,0,1.6,0,2.2s0,1,0,1.4S181.1,109,181,109
		c0-0.1,0-0.3,0.1-0.5c0-0.4,0-0.8,0-1.4s0-1.4-0.1-2.2c0-0.4,0-0.9,0-1.4c0-0.2,0-0.5,0-0.8c0-0.3,0.1-0.6,0.2-0.8
		c0.7-0.9,1.6-1.7,2.5-2.6c0.4-0.5,0.9-0.9,1.4-1.4c0.2-0.2,0.4-0.5,0.8-0.8c0.3-0.2,0.7-0.3,1.1-0.2c0.4,0.1,0.7,0.4,0.9,0.7
		l0.8,0.8l1.7,1.6l1.7,1.7c0.2,0.1,0.3,0.3,0.4,0.5c0.1,0.2,0.2,0.4,0.2,0.7c0,0.4,0,0.8,0,1.2c0,1.7,0,3.3,0,4.9v0.2h-0.1h-3.9
		h-0.1V109c0-1.1,0-2.2,0-3.3c0-0.5-0.3-0.9-0.8-1c-0.4,0-1,0-1.4,0c-0.4,0.1-0.7,0.4-0.8,0.8c0,0.4,0,0.8,0,1.2v2.3h-0.1h-3.1h-0.8
		C181.3,109.1,181.1,109,181,109z"/>
	<path class="st6" d="M232.4,152.9c0-2.1,1.1-3.4,2.6-3.4s2.6,1.3,2.6,3.4s-1.1,3.4-2.6,3.4S232.4,155,232.4,152.9z M237,152.9
		c0-1.8-0.8-2.8-1.9-2.8s-2,1-2,2.8s0.8,2.8,2,2.8S237,154.7,237,152.9L237,152.9z"/>
	<path class="st6" d="M244.3,154.5H243v1.8h-0.7v-1.8h-3.7V154l3.5-4.4h0.8l-3.4,4.3h2.9v-1.5h0.7v1.5h1.3L244.3,154.5z"/>
	<path class="st6" d="M245,151.7c0-0.3,0.2-0.5,0.5-0.5c0,0,0,0,0,0c0.3,0,0.5,0.2,0.5,0.5c0,0,0,0,0,0c0,0.3-0.2,0.5-0.5,0.5
		C245.2,152.3,245,152,245,151.7C245,151.7,245,151.7,245,151.7z M245,155.7c0-0.3,0.2-0.5,0.5-0.5c0,0,0,0,0,0
		c0.3-0.1,0.6,0.1,0.6,0.4c0.1,0.3-0.1,0.6-0.4,0.6c-0.1,0-0.2,0-0.3,0C245.2,156.2,245,156,245,155.7L245,155.7z"/>
	<path class="st6" d="M251.5,154.3c0,1.1-0.8,2-2.4,2c-0.9,0-1.7-0.3-2.4-0.9l0.3-0.5c0.5,0.5,1.3,0.8,2,0.8c1.1,0,1.7-0.6,1.7-1.4
		s-0.5-1.4-2.2-1.4h-1.4l0.3-3.3h3.6v0.6h-3l-0.2,2.1h0.9C250.8,152.3,251.5,153.1,251.5,154.3z"/>
	<path class="st6" d="M257.4,154.3c0,1.1-1,2-2.1,2c0,0-0.1,0-0.1,0c-1.8,0-2.7-1.2-2.7-3.3c0-2.3,1.2-3.4,3-3.4
		c0.5,0,1.1,0.1,1.6,0.4l-0.3,0.6c-0.4-0.2-0.8-0.3-1.3-0.3c-1.4,0-2.4,0.9-2.4,2.7c0,0.1,0,0.3,0,0.5c0.4-0.7,1.2-1.2,2-1.1
		c1.1-0.2,2.1,0.6,2.3,1.6C257.4,154,257.4,154.1,257.4,154.3z M256.7,154.3c0-0.9-0.6-1.4-1.7-1.4c-0.8-0.1-1.6,0.5-1.7,1.4
		c0,0,0,0.1,0,0.1c0,0.7,0.6,1.4,1.8,1.4c0.8,0.1,1.5-0.5,1.6-1.3C256.7,154.4,256.7,154.3,256.7,154.3L256.7,154.3z"/>
	
		<ellipse transform="matrix(0.1602 -0.9871 0.9871 0.1602 -120.3785 518.972)" class="st7" cx="244.8" cy="330.2" rx="22.4" ry="22.4"/>
	<path class="st3" d="M235,333.9l4-0.9c0.5-0.1,0.8-0.6,0.8-1.1v-0.8c0,0-0.2-1.4,1.1-1.5c0.9-0.1,7,0,7,0s1.6,0,1.6,1.2v1.2
		c0,0.4,0.3,0.8,0.7,0.9l4.3,1.3c0.5,0.1,0.9-0.1,1.1-0.5l0.6-1.3c0.1-0.2,0.1-0.5,0.1-0.8c-0.1-0.7-0.3-1.4-0.8-2
		c-0.9-1.1-4.9-3.7-12.6-3.3c-7.4,0.4-9,3.5-9.4,4.2c-0.3,0.7-0.3,1.4-0.1,2.1c0.1,0.2,0.2,0.5,0.3,0.8
		C234,333.8,234.5,334,235,333.9z"/>
	<circle class="st8" cx="203.7" cy="210.7" r="16.6"/>
	<path class="st3" d="M203.7,214.5c-1.7,0-3-1.3-3-3V205c0-1.7,1.3-3,3-3s3,1.3,3,3v6.5C206.7,213.2,205.3,214.5,203.7,214.5z
		 M203.7,202.6c-1.3,0-2.4,1.1-2.4,2.4v6.5c0.1,1.3,1.2,2.3,2.5,2.2c1.2-0.1,2.1-1,2.2-2.2V205C206.1,203.7,205,202.6,203.7,202.6
		C203.7,202.6,203.7,202.6,203.7,202.6z"/>
	<path class="st3" d="M203.7,216.6c-1.6,0.1-3.1-0.5-4.2-1.7c-1.9-2.1-1.6-5.4-1.6-5.6c0-0.2,0.2-0.3,0.4-0.3c0.2,0,0.3,0.2,0.3,0.3
		c0,0,0,0,0,0c0,0-0.3,3.2,1.4,5.1c1,1,2.3,1.5,3.7,1.4c1.4,0.1,2.8-0.5,3.8-1.4c1.2-1.4,1.8-3.2,1.7-5.1c0-0.2,0.1-0.3,0.3-0.3
		c0.2,0,0.3,0.1,0.3,0.3c0.1,2-0.6,4-1.9,5.6C206.8,216,205.3,216.6,203.7,216.6z"/>
	<path class="st3" d="M203.7,221.1c-0.2,0-0.3-0.1-0.3-0.3v-4.6c0-0.2,0.1-0.3,0.3-0.4s0.3,0.1,0.4,0.3c0,0,0,0.1,0,0.1v4.6
		C204,221,203.9,221.2,203.7,221.1C203.7,221.2,203.7,221.2,203.7,221.1z"/>
	<circle class="st8" cx="247.3" cy="210.7" r="16.6"/>
	<circle class="st3" cx="242.8" cy="210.8" r="1.9"/>
	<circle class="st3" cx="247.3" cy="210.8" r="1.9"/>
	<circle class="st3" cx="251.8" cy="210.8" r="1.9"/>
	<path class="st3" d="M244.7,206.1c0,1.1-0.9,1.9-1.9,1.9c-1.1,0-1.9-0.9-1.9-1.9c0-1.1,0.9-1.9,1.9-1.9c0,0,0,0,0,0
		C243.8,204.2,244.7,205.1,244.7,206.1z"/>
	<path class="st3" d="M249.2,206.1c0,1.1-0.9,1.9-1.9,1.9s-1.9-0.9-1.9-1.9c0-1.1,0.9-1.9,1.9-1.9S249.2,205.1,249.2,206.1
		L249.2,206.1z"/>
	<path class="st3" d="M253.8,206.1c0,1.1-0.9,1.9-1.9,1.9c-1.1,0-1.9-0.9-1.9-1.9c0-1.1,0.9-1.9,1.9-1.9
		C252.9,204.2,253.8,205.1,253.8,206.1C253.8,206.1,253.8,206.1,253.8,206.1z"/>
	<circle class="st3" cx="242.8" cy="215.3" r="1.9"/>
	<circle class="st3" cx="247.3" cy="215.3" r="1.9"/>
	<circle class="st3" cx="251.8" cy="215.3" r="1.9"/>
	<circle class="st8" cx="290.9" cy="210.7" r="16.6"/>
	<path class="st3" d="M283.1,208.6v3.9c0,0.2,0.1,0.3,0.3,0.3h2.2c0.1,0,0.1,0,0.2,0.1l3.4,2.6c0.1,0.1,0.3,0.1,0.4,0
		c0-0.1,0.1-0.1,0.1-0.2v-9.2c0-0.2-0.1-0.3-0.3-0.3c-0.1,0-0.1,0-0.2,0.1l-3.3,2.4c-0.1,0-0.1,0.1-0.2,0.1h-2.3
		C283.2,208.3,283.1,208.4,283.1,208.6z"/>
	<path class="st3" d="M295.9,217.4c-0.2,0-0.4-0.2-0.4-0.4c0-0.1,0-0.2,0.1-0.3c1.7-1.7,2.7-4,2.7-6.5c-0.2-2.1-1.1-4-2.6-5.5
		c-0.2-0.1-0.2-0.4-0.1-0.5c0.1-0.2,0.4-0.2,0.5-0.1c0,0,0,0,0,0c1.7,1.6,2.7,3.7,2.9,6c0,2.6-1,5.1-2.9,7
		C296.1,217.3,296,217.4,295.9,217.4z"/>
	<path class="st3" d="M293.8,215.5c-0.1,0-0.2,0-0.3-0.1c-0.1-0.1-0.1-0.4,0-0.5c0,0,0,0,0,0c1.2-1,1.9-2.5,2-4.1
		c-0.1-1.7-0.8-3.2-2-4.4c-0.2-0.1-0.2-0.4,0-0.5c0.1-0.2,0.4-0.2,0.5,0c1.4,1.3,2.2,3.1,2.3,5c-0.1,1.8-0.9,3.5-2.3,4.6
		C294,215.5,293.9,215.5,293.8,215.5z"/>
	<path class="st3" d="M292,213.6c-0.1,0-0.2,0-0.3-0.1c-0.1-0.1-0.2-0.4,0-0.5c0,0,0,0,0,0c2.3-2.3,0.1-4.9,0-5
		c-0.1-0.2-0.1-0.4,0-0.5c0.2-0.1,0.4-0.1,0.5,0c0,0,2.8,3.3,0,6.1C292.2,213.6,292.1,213.6,292,213.6z"/>
	<circle class="st8" cx="203.4" cy="263.8" r="16.6"/>
	<path class="st3" d="M203.5,269.5c-0.3,0-0.5-0.2-0.5-0.5c0,0,0,0,0,0v-10.5c0.1-0.3,0.3-0.5,0.6-0.4c0.2,0,0.4,0.2,0.4,0.4V269
		C204,269.3,203.8,269.5,203.5,269.5C203.5,269.5,203.5,269.5,203.5,269.5z"/>
	<path class="st3" d="M208.5,264.3h-10.2c-0.3-0.1-0.5-0.3-0.4-0.6c0-0.2,0.2-0.4,0.4-0.4h10.2c0.3-0.1,0.5,0.1,0.6,0.4
		c0.1,0.3-0.1,0.5-0.4,0.6C208.6,264.3,208.5,264.3,208.5,264.3z"/>
	<circle class="st8" cx="289.6" cy="263.8" r="16.6"/>
	<path class="st0" d="M290.7,264c1.2-0.5,1.9-1.7,1.9-3c0-1.7-1.4-3-3-3s-3,1.4-3,3c0,1.3,0.7,2.5,1.9,3c-4.6,0.7-4.4,5.8-4.4,5.8
		l11,0.1C295.1,269.8,295.3,264.7,290.7,264z"/>
	<ellipse transform="matrix(0.2801 -0.96 0.96 0.2801 -75.8 426.5398)" class="st8" cx="246.5" cy="263.8" rx="16.6" ry="16.6"/>
	<path class="st0" d="M243.1,260h3.4c1.2,0,2.1,0.9,2.1,2.1v3.4c0,1.2-0.9,2.1-2.1,2.1h-3.4c-1.2,0-2.1-0.9-2.1-2.1v-3.4
		C241.1,261,242,260,243.1,260z"/>
	<path class="st0" d="M249.3,265.1v-2.6l1.9-2c0.2-0.2,0.4-0.2,0.6,0c0.1,0.1,0.1,0.2,0.1,0.3v5.8c0,0.2-0.2,0.4-0.4,0.4
		c-0.1,0-0.2,0-0.3-0.1L249.3,265.1z"/>
	<g>
		<g>
			<path d="M218.1,118.3h1.9v2.5h-0.6l-4.2,12.3h-2.4L218.1,118.3z M215.9,127.3h6.7l0.7,1.8h-8L215.9,127.3z M219.3,120.8v-2.5h1.2
				l5.4,14.8h-2.4L219.3,120.8z"/>
			<path d="M227.3,122.3h2.2v1.6h0c0.3-0.5,0.7-1,1.3-1.3c0.6-0.3,1.2-0.5,2.1-0.5c1.2,0,2.1,0.4,2.7,1.1c0.6,0.7,1,1.7,1,2.9v7
				h-2.2v-6.6c0-0.8-0.2-1.4-0.6-1.9c-0.4-0.4-1-0.7-1.7-0.7c-0.5,0-1,0.1-1.4,0.3c-0.4,0.2-0.7,0.6-0.9,1s-0.3,0.9-0.3,1.5v6.3
				h-2.2V122.3z"/>
			<path d="M240.4,132.6c-0.7-0.5-1.2-1.1-1.6-1.9c-0.4-0.8-0.6-1.8-0.6-3v0c0-1.1,0.2-2.1,0.6-3s0.9-1.5,1.6-1.9
				c0.7-0.5,1.5-0.7,2.4-0.7c0.8,0,1.4,0.2,2,0.5c0.6,0.4,1.1,0.9,1.4,1.5h0v-5.8h2.2v14.8h-2.2v-1.8h0c-0.3,0.6-0.8,1.1-1.4,1.5
				c-0.6,0.4-1.3,0.5-2,0.5C241.8,133.3,241,133.1,240.4,132.6z M244.8,131c0.4-0.3,0.8-0.7,1-1.3c0.2-0.6,0.4-1.2,0.4-1.9v0
				c0-0.7-0.1-1.4-0.4-1.9s-0.6-1-1-1.3c-0.4-0.3-0.9-0.5-1.5-0.5c-0.6,0-1.1,0.1-1.5,0.4c-0.4,0.3-0.8,0.7-1,1.3s-0.3,1.2-0.3,2v0
				c0,0.8,0.1,1.4,0.3,2c0.2,0.6,0.6,1,1,1.3s0.9,0.4,1.5,0.4C243.9,131.4,244.4,131.3,244.8,131z"/>
			<path d="M250.7,122.3h2.2v1.8h0c0.2-0.6,0.5-1.1,0.9-1.5s1-0.5,1.6-0.5c0.2,0,0.3,0,0.4,0c0.1,0,0.2,0,0.3,0.1v2.1
				c-0.1,0-0.2-0.1-0.4-0.1c-0.2,0-0.4,0-0.6,0c-0.5,0-0.9,0.1-1.2,0.3c-0.3,0.2-0.6,0.5-0.8,0.9c-0.2,0.4-0.3,0.8-0.3,1.4v6.4h-2.2
				V122.3z"/>
			<path d="M259.5,132.7c-0.8-0.5-1.3-1.1-1.8-1.9c-0.4-0.8-0.6-1.8-0.6-3v0c0-1.1,0.2-2.1,0.6-2.9c0.4-0.8,1-1.5,1.7-2
				c0.7-0.5,1.6-0.7,2.6-0.7c1,0,1.9,0.2,2.6,0.7c0.7,0.4,1.3,1.1,1.7,1.9c0.4,0.8,0.6,1.8,0.6,2.8v0.7h-8.8v-1.6h7.7l-1.1,1.5v-0.9
				c0-0.8-0.1-1.4-0.3-1.9c-0.2-0.5-0.5-0.9-1-1.1c-0.4-0.2-0.9-0.4-1.4-0.4c-0.5,0-1,0.1-1.4,0.4s-0.7,0.6-1,1.1
				c-0.2,0.5-0.4,1.1-0.4,1.9v0.9c0,0.7,0.1,1.3,0.4,1.8c0.2,0.5,0.6,0.9,1,1.1c0.4,0.3,1,0.4,1.5,0.4c0.4,0,0.8-0.1,1.2-0.2
				c0.3-0.1,0.6-0.3,0.8-0.5c0.2-0.2,0.4-0.5,0.5-0.7l0-0.1h2.1l0,0.1c-0.1,0.4-0.3,0.8-0.5,1.2s-0.6,0.7-1,1.1
				c-0.4,0.3-0.9,0.6-1.4,0.7s-1.1,0.3-1.8,0.3C261.1,133.3,260.2,133.1,259.5,132.7z"/>
			<path d="M269.9,132.9c-0.5-0.3-1-0.7-1.3-1.1s-0.5-1.1-0.5-1.7v0c0-0.9,0.4-1.7,1.1-2.2c0.7-0.5,1.7-0.9,3-0.9l4.1-0.2v1.6
				l-3.8,0.2c-0.7,0-1.2,0.2-1.5,0.5c-0.4,0.3-0.5,0.6-0.5,1.1v0c0,0.5,0.2,0.8,0.5,1.1c0.4,0.3,0.8,0.4,1.4,0.4
				c0.5,0,1-0.1,1.4-0.3c0.4-0.2,0.7-0.5,1-0.9c0.2-0.4,0.4-0.8,0.4-1.3v-3.2c0-0.6-0.2-1.1-0.6-1.4c-0.4-0.3-0.9-0.5-1.6-0.5
				c-0.6,0-1.1,0.1-1.5,0.4c-0.4,0.3-0.6,0.6-0.7,1.1l0,0.1h-2.1l0-0.1c0.1-0.6,0.3-1.2,0.6-1.7c0.4-0.5,0.9-0.9,1.5-1.2
				s1.4-0.4,2.3-0.4c0.9,0,1.6,0.1,2.3,0.4s1.1,0.7,1.5,1.2s0.5,1.2,0.5,1.9v7.4h-2.2v-1.7h0c-0.2,0.4-0.5,0.7-0.8,1
				c-0.3,0.3-0.7,0.5-1.1,0.7c-0.4,0.2-0.9,0.2-1.3,0.2C271.1,133.3,270.5,133.2,269.9,132.9z"/>
		</g>
	</g>
</g>
<g id="freepik--Character--inject-2">
	<path class="st7" d="M417.8,436.1l11.7,20.9l14,13.9c1,1,1,2.5,0,3.5c0,0-0.1,0.1-0.1,0.1l0,0c-0.6,0.5-1.4,0.7-2.2,0.5
		c-4.9-1.2-23-5.5-23.8-7.1c-0.9-1.8-13.8-21.2-13.8-21.2L417.8,436.1z"/>
	<g class="st9">
		<path class="st3" d="M443.5,474.5l-26.8-7.9l0.5,0.9c0.5,0.8,1.2,1.3,2,1.6c2.2,0.8,8.4,2.7,22.1,6
			C442,475.2,442.9,475,443.5,474.5L443.5,474.5z"/>
	</g>
	<g class="st9">
		<path class="st3" d="M416.9,457.4c0.8,0.1,1.3,0.7,1.3,1.5c0,0.8-0.7,1.3-1.4,1.3c-0.8-0.1-1.4-0.8-1.4-1.6
			c0.1-0.8,0.9-1.3,1.6-1.2"/>
	</g>
	<path class="st6" d="M433.4,468.3c0.1-1.9,1.2-3.7,3-4.5c0-0.1-0.4-0.1-0.9,0.1c-1.4,0.6-2.3,2-2.3,3.5
		C433.2,468,433.4,468.3,433.4,468.3z"/>
	<path class="st6" d="M436.5,470.2c0.1,0,0.4-1,1.3-2s1.9-1.3,1.9-1.5C437.9,466.9,436.5,468.3,436.5,470.2L436.5,470.2z"/>
	<path class="st6" d="M428.6,466.3c0.5-1.1,1.1-2.2,1.8-3.2c0.8-0.9,1.7-1.7,2.6-2.5C430.6,461.5,428.8,463.7,428.6,466.3z"/>
	<path class="st6" d="M424.5,460.3c0.1,0.1,1-1.1,2.4-2s2.8-1.3,2.8-1.4c-1.1,0-2.2,0.3-3.1,1C425.7,458.4,424.9,459.3,424.5,460.3z
		"/>
	<path class="st6" d="M420.9,454.2c0.7-0.8,1.6-1.5,2.5-2.1c1-0.5,2.1-0.8,3.1-0.9c0-0.1-0.4-0.2-1-0.2c-1.7,0.1-3.3,0.9-4.2,2.3
		C421,453.8,420.9,454.2,420.9,454.2z"/>
	<path class="st6" d="M422.7,451c-0.1-0.3-0.2-0.6-0.4-0.8c-0.5-0.7-1.1-1.2-1.8-1.7c-0.5-0.4-1.1-0.6-1.7-0.5
		c-0.4,0.1-0.8,0.4-0.9,0.8c-0.1,0.4,0,0.8,0.2,1.1c0.9,1.4,2.7,1.9,4.2,1.2c1.5-0.7,2.4-2.2,2.3-3.8c0-0.4-0.2-0.8-0.5-1
		c-0.4-0.2-0.8-0.2-1.1,0.1c-0.4,0.4-0.8,0.9-0.9,1.5c-0.3,0.8-0.5,1.6-0.5,2.4c0,0.3,0,0.6,0.1,0.9c0.1-1.1,0.3-2.2,0.7-3.2
		c0.2-0.5,0.5-0.9,0.9-1.3c0.2-0.1,0.4-0.2,0.6,0c0.2,0.2,0.3,0.4,0.3,0.7c0,1.4-0.8,2.7-2.1,3.3c-1.3,0.6-2.8,0.1-3.6-1
		c-0.2-0.2-0.2-0.5-0.2-0.8c0-0.2,0.2-0.4,0.5-0.4c0.5,0,1,0.1,1.5,0.4C421.2,449.4,422,450.2,422.7,451z"/>
	<path class="st7" d="M392.7,445.3l-4.7,17.1c0,0,15.8,10.6,15.2,13.8l-33.5-8l6.3-27L392.7,445.3z"/>
	<g class="st9">
		<path class="st3" d="M377.9,458.5c-0.7,0-1.3,0.6-1.3,1.3c0,0.7,0.6,1.3,1.3,1.3c0.8,0,1.4-0.7,1.4-1.4c-0.1-0.8-0.8-1.3-1.5-1.2"
			/>
	</g>
	<g class="st9">
		<path class="st3" d="M369.6,468.3l0.7-2.7l31.9,8.7c0,0,1.3,1,0.9,2L369.6,468.3z"/>
	</g>
	<path class="st6" d="M388.5,462.4c0,0.2-0.9,0-1.8,0.4s-1.5,0.9-1.7,0.8s0.3-1,1.5-1.4S388.6,462.3,388.5,462.4z"/>
	<path class="st6" d="M391.7,464.7c0,0.2-0.8,0.3-1.5,0.8s-1.1,1.3-1.2,1.2s0-1,0.9-1.7S391.7,464.6,391.7,464.7z"/>
	<path class="st6" d="M392.7,469.4c-0.2,0-0.2-0.9,0.5-1.7s1.5-1,1.5-0.8s-0.5,0.5-1.1,1.2S392.9,469.4,392.7,469.4z"/>
	<path class="st6" d="M389.2,458.4c-0.1,0.1-0.8-0.3-1.7-0.4s-1.7,0-1.8-0.2s0.8-0.6,1.9-0.4S389.3,458.3,389.2,458.4z"/>
	<g class="st10">
		<polygon points="391.8,448.7 390.9,451.8 374.5,447.7 375.3,444.1 		"/>
	</g>
	<path class="st6" d="M390.1,454.9c-0.6,0-1.2-0.1-1.7-0.4c-0.6-0.3-1.1-0.6-1.6-1c-0.3-0.2-0.6-0.5-0.8-0.7
		c-0.2-0.2-0.3-0.3-0.4-0.5c-0.2-0.3-0.1-0.7,0.1-0.9c0.2-0.2,0.5-0.3,0.8-0.2c0.2,0,0.4,0.1,0.6,0.2c0.4,0.2,0.7,0.4,1,0.6
		c0.5,0.4,0.9,0.9,1.3,1.4C390,454.3,390.1,455,390.1,454.9c-0.1,0.1-0.4-0.5-1.1-1.3c-0.4-0.5-0.8-0.9-1.3-1.2
		c-0.3-0.2-0.6-0.4-0.9-0.5c-0.3-0.2-0.6-0.2-0.8-0.1s-0.1,0.1,0,0.2c0.1,0.1,0.2,0.3,0.3,0.4c0.2,0.3,0.5,0.5,0.8,0.7
		c0.5,0.4,1,0.7,1.5,1C389.1,454.3,389.6,454.6,390.1,454.9z"/>
	<path class="st6" d="M389.8,455.1c-0.2-0.6-0.2-1.2-0.1-1.7c0.1-0.6,0.4-1.2,0.7-1.8c0.2-0.3,0.4-0.6,0.7-0.9
		c0.3-0.4,0.8-0.6,1.3-0.6c0.3,0.1,0.5,0.3,0.6,0.6c0,0.2,0,0.4,0,0.7c0,0.4-0.1,0.8-0.3,1.1c-0.2,0.6-0.6,1.1-1.1,1.6
		c-0.9,0.7-1.6,0.8-1.6,0.7s0.6-0.3,1.3-1c0.4-0.4,0.7-0.9,0.9-1.5c0.1-0.3,0.2-0.7,0.2-1c0-0.4,0-0.7-0.2-0.7s-0.5,0.1-0.7,0.4
		c-0.2,0.2-0.5,0.5-0.6,0.8c-0.3,0.5-0.6,1-0.7,1.6C389.9,454.5,389.9,455.1,389.8,455.1z"/>
	<path class="st6" d="M397.7,254.3c4.5,13.1,7.3,26.8,8.4,40.6c1.6,22.1-11.9,160.5-11.9,160.5l-26.4-4.8c0,0,5.9-48.8,8.9-72.6
		c3-23.5-8.9-105.6-8.9-105.6l28-18.1"/>
	<path class="st6" d="M336.5,260.5c0,0-5.6,24,6.9,50.1c7.5,15.7,62.7,147.6,62.7,147.6l22.8-11.6l-55.8-175.5L336.5,260.5z"/>
	<path class="st8" d="M408.1,381.3c-0.1,0-7.2-21.1-15.7-47.3s-15.3-47.5-15.2-47.5s7.2,21.1,15.7,47.3S408.3,381.2,408.1,381.3z"/>
	<path class="st8" d="M406.1,458.2c-0.1,0-11.2-25.9-24.8-57.9s-24.5-58-24.3-58.1s11.3,25.9,24.8,57.9S406.2,458.1,406.1,458.2z"/>
	<path class="st8" d="M375.8,282.6c-0.7-0.4-1.4-0.8-2-1.2c-1.6-0.9-3.3-1.7-5.1-2.4l-2.9-1.1c-0.8-0.3-1.6-0.6-2.4-0.8
		c-0.8-0.2-1.5-0.2-2.3-0.2c0.8-0.3,1.6-0.4,2.4-0.1c0.8,0.2,1.7,0.4,2.5,0.7c0.9,0.3,1.9,0.6,2.9,1c1.8,0.7,3.5,1.5,5.1,2.5
		C374.7,281.4,375.3,282,375.8,282.6z"/>
	<path class="st8" d="M389.6,268.8c-1.2,1.6-2.4,3.2-3.8,4.7c-1.2,1.6-2.6,3.1-4,4.5c1-1.7,2.2-3.4,3.6-4.9
		C386.7,271.5,388.1,270.1,389.6,268.8z"/>
	<path class="st8" d="M347.9,269.3c0.2,0.8,0.2,1.6-0.1,2.4c-0.5,1.9-1.7,3.6-3.4,4.7c-1.7,1-3.7,1.4-5.7,1.2
		c-0.8,0-1.6-0.1-2.4-0.3c0.8-0.1,1.6-0.1,2.4-0.1c1.9,0.1,3.8-0.4,5.4-1.3c1.6-1,2.8-2.6,3.3-4.4
		C347.7,270.9,347.8,270.1,347.9,269.3z"/>
	<path class="st8" d="M399.3,265.1c-2.3-0.6-4.3-2.3-5.2-4.5c0.1-0.1,1,1.2,2.5,2.5S399.4,265,399.3,265.1z"/>
	<path class="st6" d="M383.3,149.6c2.1,0.2,4,1.4,5,3.2c0.5,1.3,0.9,2.6,1.2,3.9c0.3,1.3,1.1,2.5,2.3,3.2c1.1,0.5,2.4,0.4,3.5,0.6
		c2.9,0.7,4.8,3.4,4.5,6.3c-0.1,0.4-0.1,0.8,0,1.1c0.1,0.2,0.3,0.4,0.6,0.6c1.6,0.9,3.7,0.8,5.1,2c0.9,0.9,1.5,2,1.6,3.2
		c0.3,2.4-0.1,4.8-1.3,6.8c-0.4,0.8-1.1,1.6-1.9,2.1c-1.1,0.6-2.4,1-3.8,1c-4.4,0.3-9.1-0.7-12.5-3.6c-4.4-3.9-11.4-18.6-12.2-24.5
		L383.3,149.6z"/>
	<path class="st7" d="M350.6,165.3l-15.7,7.5l11.2,47.2c0,0-6.6,19.4-8.9,30.2L335,261c22.5,15.4,45.8,13.4,64.8-6.3l-10-22.7
		l8.4-32.8l-22.1-36.1l-5.5-0.3L350.6,165.3z"/>
	<g class="st10">
		<path d="M338.6,247.4c0.5-0.9,9.5-8.8,10.5-9.2c13.7-6.6,22-0.4,37.3,0.8c0.4,0,0,0.3,0.4,0.3c1.7,0.1,4.4-0.8,6.1-0.5l1,3
			c-10.3,4.1-22.2,0.6-32.8,3.6c-3.1,0.9-6.1,2.4-9.3,2.9c-0.9,0-1.8,0.4-2.6,1c-0.3,0.4-0.6,0.8-0.8,1.3c-0.9,1.1-2.2,1.8-3.6,1.9
			c-1.4,0.3-3,0.1-4.3-0.6C339.3,251.1,338,248.8,338.6,247.4z"/>
	</g>
	<path class="st11" d="M336.9,243.6c-0.8,0.2-0.5,3,1.5,2.6c3.4-0.9,6.8-2,10.1-3.3l6.8-5.6l30.7,1.9l-4.7-14.4c0,0-31.8,3-36.2,4.8
		c-3.3,1.3-5.6,2.7-7.1,4.4"/>
	<path class="st11" d="M337.9,233.9c-0.4,0.5-0.8,1.1-1.2,1.7c-0.4,0.8,0.8,1.9,0.8,1.9s-2.7,0.9-1.8,2s1.3,1.2,1.3,1.2
		s-2.2,1.7-1.8,2.5s1.7,0.4,1.7,0.4"/>
	<path class="st12" d="M336.7,243.7c-0.1-0.1,0.7-0.9,2-1.4c0.7-0.4,1.6-0.5,2.4-0.3c-0.7,0.3-1.5,0.6-2.2,0.8
		C338.2,243.1,337.5,243.5,336.7,243.7z"/>
	<path class="st12" d="M339.7,239.5c0,0.1-0.6,0.3-1.3,0.7s-1.3,0.6-1.4,0.5s0.4-0.7,1.2-1S339.7,239.4,339.7,239.5z"/>
	<path class="st12" d="M339.4,237.3c0,0.1-0.1,0.1-0.3,0.1c-0.2,0.1-0.4,0.1-0.6,0.2c-0.5,0.1-1,0-1-0.1s0.4-0.3,0.9-0.4
		c0.2,0,0.5,0,0.7,0C339.4,237.1,339.5,237.2,339.4,237.3z"/>
	<path class="st7" d="M376.1,163.1c0,0,13.4,0.4,18.5,10.5c2.6,5.1,9.4,22.5,11.7,29.8c1.6,5,6.9,29.9,0.9,32.4
		c-7.7,3.2-21.3,3.7-21.3,3.7l0,0l-5-14.5c-0.7-2.4,0.6-4.8,2.9-5.6l0,0l4.1,0.9l4.7-1.4l-3.2-29.2L385,184L376.1,163.1z"/>
	<g class="st10">
		<path d="M363.5,174.8c0.6,2.3,0,5.6,0.3,7.6c1.3,8.2,1.6,16.5,1,24.7c-0.1,0.4,0,0.9,0.1,1.3c0.2,0.4,0.4,0.7,0.6,1.1
			c1.5,2.3,2.1,5.1,1.6,7.9c-0.5,2.7-1.3,5.3-2.5,7.8c0-2.2,0.1-5.5,0.3-7.7c0-0.4,0.3-0.1,0.3-0.6c0.1-2.6-0.3-5.1-2.1-7
			c-0.4-0.4-0.7-0.8-1-1.2c-0.2-0.4-0.3-0.9-0.3-1.4c-1-9.2-1.6-18.5-1.9-27.8c-0.1-0.5,0-1.1,0.3-1.5c0.3-0.3,0.6-0.5,1-0.7
			c0.7-0.5,1.2-1.3,1.9-1.6"/>
	</g>
	<path class="st7" d="M334.9,172.9c0,0-9.5,3.9-7.5,20c1,7.9,5.7,29.3,10.8,41.7c2.4,5.8,7.9,9.9,14.1,9.1c2.7-0.3,5.4,0.1,7.2-0.9
		c2.8-1.6,4.1-7.2,4.7-13.3c0.4-4.1,0.3-8.4,0.9-11.9c1-5.7-1.6-8.5-5-9.2l-13.2-2.8l-0.9,7L334.9,172.9z"/>
	<path class="st6" d="M351.3,221.5c0,0,0.2,0.3,0.8,0.7c0.7,0.5,1.6,0.9,2.5,1c1.3,0.2,2.7,0,3.9-0.5c1.6-0.5,3-1.3,4.3-2.4
		c1.2-1.1,2-2.6,2.3-4.2c0.2-1.3,0.1-2.7-0.4-3.9c-0.5-1.1-1.2-2.2-2.1-3.1c0.3,0.2,0.6,0.4,0.8,0.6c0.7,0.7,1.2,1.4,1.6,2.3
		c0.6,1.3,0.8,2.7,0.5,4.1c-0.3,1.7-1.1,3.3-2.4,4.5c-1.3,1.1-2.8,1.9-4.5,2.4c-1.3,0.5-2.8,0.6-4.1,0.4c-0.9-0.2-1.8-0.6-2.5-1.2
		C351.4,221.9,351.2,221.5,351.3,221.5z"/>
	<path class="st6" d="M337.4,232.5c0,0,0.3,0.7,0.9,1.9c0.8,1.7,2,3.3,3.3,4.6c2,2,4.5,3.4,7.3,4.2c3.4,0.9,6.9,0.7,10.1-0.6
		c1.7-0.7,2.4-2.5,3-4.1c0.6-1.6,1-3.2,1.3-4.8c0.5-2.8,0.8-5.7,1-8.5c0.2-2.4,0.4-4.3,0.5-5.8c0.1-0.6,0.1-1.1,0.2-1.6
		c0-0.2,0-0.4,0.1-0.5c0,0.2,0,0.4,0,0.6c0,0.4,0,0.9-0.1,1.6c-0.1,1.4-0.2,3.4-0.3,5.8c-0.1,2.9-0.4,5.7-0.9,8.6
		c-0.3,1.7-0.7,3.3-1.3,4.9c-0.3,0.9-0.7,1.7-1.1,2.5c-0.5,0.9-1.2,1.5-2.1,1.9c-3.3,1.3-7,1.5-10.5,0.6c-4.8-1.3-8.7-4.7-10.7-9.2
		c-0.2-0.5-0.4-1-0.6-1.5C337.4,232.9,337.4,232.7,337.4,232.5z"/>
	<path class="st6" d="M342.5,222.9c-0.1-0.9,0-1.8,0.1-2.7c0.1-1.6,0.3-3.9,0.5-6.5c0.1-1.3,0.2-2.4,0.4-3.6c0.1-1,0.5-2,1.1-2.8
		c0.4-0.5,1-0.9,1.7-1.1c0.5-0.1,0.8,0,0.7,0s-0.3,0-0.7,0.2c-0.6,0.2-1.1,0.6-1.5,1.1c-1,1.3-0.9,3.7-1.2,6.2s-0.5,4.8-0.7,6.4
		C342.9,221.1,342.7,222,342.5,222.9z"/>
	<path class="st6" d="M337.9,174.3c0.4,0.1,0.7,0.2,1.1,0.4c0.9,0.5,1.7,1.2,2.4,2c1,1.2,1.7,2.6,2.1,4.1c0.5,1.6,0.9,3.5,1.4,5.4
		c0.8,3.9,1.6,7.4,2.1,9.9c0.2,1.3,0.4,2.3,0.6,3c0.1,0.4,0.1,0.7,0.1,1.1c-0.2-0.3-0.3-0.7-0.3-1.1c-0.2-0.7-0.4-1.7-0.7-3
		c-0.6-2.5-1.4-6-2.2-9.9c-0.4-1.9-0.8-3.8-1.3-5.4c-0.4-1.4-1.1-2.8-2-4C340.2,175.8,339.1,174.9,337.9,174.3z"/>
	<path class="st6" d="M398.2,238.2c-0.3,0.1-0.6,0.2-0.9,0.2l-2.5,0.3l-8.9,1.1h-0.2l-0.1-0.2c-0.5-1.6-1.1-3.4-1.6-5.2
		s-1-3.8-1.7-5.8c-0.3-0.8-0.5-1.5-0.8-2.3l-0.5-1.1c-0.2-0.4-0.3-0.8-0.4-1.2c-0.1-0.8-0.1-1.6,0-2.4c0.1-0.8,0.6-1.5,1.3-1.9
		c0.6-0.4,1.3-0.6,2.1-0.6c0.7,0,1.4,0.2,2,0.4c0.6,0.2,1.1,0.4,1.7,0.5c0.5,0.1,1.1,0.1,1.6,0c1-0.1,1.9-0.3,2.8-0.7
		c0.7-0.2,1.4-0.4,2.2-0.4c0.5,0,0.9,0,1.4,0.1c0.2,0,0.3,0.1,0.5,0.1c-0.6,0-1.2,0-1.9,0c-0.7,0.1-1.4,0.3-2.1,0.5
		c-0.9,0.3-1.9,0.6-2.8,0.7c-0.6,0.1-1.2,0.1-1.7,0c-0.6-0.1-1.2-0.3-1.8-0.5c-0.6-0.2-1.2-0.3-1.8-0.4c-0.7,0-1.3,0.2-1.8,0.6
		c-0.6,0.3-1,0.9-1.1,1.6c-0.1,0.7-0.1,1.5,0,2.2c0.1,0.3,0.2,0.7,0.4,1c0.1,0.4,0.3,0.7,0.5,1.1c0.3,0.7,0.6,1.5,0.9,2.3
		c0.7,2,1.2,4,1.7,5.8s1,3.6,1.5,5.2l-0.2-0.1l8.9-0.9l2.5-0.2C397.7,238.1,398,238.2,398.2,238.2z"/>
	<path class="st6" d="M399.8,220.4c0-0.1,0.4,0,0.9,0.3c0.7,0.4,1.2,1,1.6,1.7c0.6,0.9,1,2,1.1,3.1c-0.2,0.1-0.7-1.3-1.5-2.8
		c-0.4-0.6-0.8-1.2-1.4-1.7C400.1,220.6,399.8,220.4,399.8,220.4z"/>
	<path class="st6" d="M389.2,220.4c-0.1-0.4-0.1-0.9-0.1-1.4c0-1.2,0.1-2.5,0.2-3.7c0.3-3.1,1.4-7.3,1.9-12c0.6-4,0.2-8.1-1-11.9
		c-0.6-1.6-1.4-3-2.3-4.4c0,0,0.1,0.1,0.3,0.2c0.2,0.2,0.4,0.5,0.6,0.8c0.7,1,1.3,2.1,1.8,3.3c1.2,2.9,1.7,7.4,1.2,12.1
		c-0.3,2.4-0.7,4.6-1.1,6.6s-0.8,3.8-1,5.4s-0.3,2.8-0.4,3.6C389.3,219.5,389.2,219.9,389.2,220.4z"/>
	<g class="st10">
		<path d="M390.7,192.1c0.5,1.8,1,3.7,1.5,5.5c0.6,1.9,1,4,1.2,6c0,1.7-0.1,3.4-0.5,5.1c-0.3,1.9-0.6,3.9-0.9,5.8s0.3,3.6-0.9,5.2
			l-2,0.3c0.3-8.6,3.7-19.7,1.6-28.1"/>
	</g>
	<path class="st6" d="M382.7,174.1c0.8,1.6,1.4,3.2,1.9,4.9c0.7,1.6,1.2,3.3,1.7,5c-1-1.5-1.7-3.1-2.2-4.8
		C383.5,177.6,383,175.9,382.7,174.1z"/>
	<g class="st10">
		<path d="M347.6,203.9c-1.2,0-2.4,0.4-3.4,1.1c-2.2,1.5-3.8,3.7-4.5,6.2c-0.7,2.6-0.6,5.3,0.2,7.8c0.3,0.8,0.8,1.7,1.6,1.6
			c1,0,1.4-1.2,1.5-2.2c0.4-2.6,0.8-5.3,1.2-7.9c0.1-0.9,0.4-1.8,0.8-2.6c0.4-0.8,1.3-1.3,2.2-1.4l0.3-2.8"/>
	</g>
	<path class="st5" d="M345.6,192.7c0,0-1,0.2-2.6,0.7c-2.1,0.7-4.1,1.5-6,2.5c-2.3,1.1-4.3,2.3-5.7,3.2l-1.7,1
		c-0.2,0.1-0.4,0.3-0.6,0.4c0.2-0.2,0.4-0.3,0.6-0.4c0.4-0.3,0.9-0.7,1.6-1.1c1.8-1.2,3.7-2.3,5.7-3.3c1.9-1,4-1.8,6.1-2.4
		c0.6-0.2,1.3-0.3,1.9-0.4C345.1,192.7,345.4,192.7,345.6,192.7z"/>
	<path class="st5" d="M347,198.6c-0.2,0.1-0.5,0.2-0.7,0.2c-0.5,0.1-1.1,0.4-1.9,0.6c-2.1,0.7-4.1,1.6-6.1,2.5c-2,0.9-3.9,2-5.8,3.2
		c-0.7,0.5-1.3,0.9-1.6,1.1c-0.2,0.2-0.4,0.3-0.6,0.4c0,0,0.2-0.2,0.5-0.5s0.9-0.7,1.6-1.2c1.8-1.3,3.7-2.4,5.8-3.3
		c2-1,4.1-1.8,6.2-2.4c0.8-0.2,1.5-0.4,1.9-0.5C346.5,198.6,346.8,198.6,347,198.6z"/>
	<path class="st5" d="M399.4,185.5c-0.5,0.2-1,0.3-1.5,0.4c-1.2,0.3-2.3,0.7-3.5,1.1c-1.1,0.4-2.3,1-3.3,1.5
		c-0.4,0.3-0.9,0.5-1.4,0.7c0.4-0.4,0.8-0.7,1.2-0.9c1.1-0.6,2.2-1.2,3.3-1.6c1.2-0.4,2.3-0.8,3.6-1
		C398.4,185.6,398.9,185.5,399.4,185.5z"/>
	<path class="st5" d="M402.6,192.8c-0.6,0.1-1.1,0.1-1.7,0.1c-1.3,0.1-2.7,0.4-3.9,0.8c-1.8,0.7-3.5,1.5-5.2,2.3
		c0.4-0.4,0.9-0.7,1.4-0.9c1.2-0.7,2.4-1.2,3.7-1.7c1.3-0.4,2.6-0.7,4-0.7c0.4,0,0.8,0,1.2,0C402.3,192.7,402.4,192.7,402.6,192.8z"
		/>
	<path class="st6" d="M379.6,115.9c3.3,1.9,5.2,5.5,5,9.3c-0.2,1.4-0.8,2.9-0.4,4.2c0.5,1.1,1.2,2.2,2,3.1c3.2,4.3,2.3,10.4-2,13.6
		c-2.6,1.9-6,2.4-9.1,1.4"/>
	<path class="st6" d="M383.1,133.9c7.1-19.3-13.8-27.2-24.6-23.2c-10.1,3.7-14.2,9.2-15.4,16.3s-0.5,14.6,2.7,21
		c1.6,3.1,4.2,6.3,7.8,6.4"/>
	<path class="st11" d="M354.7,171.9l-5-46.5l0,0c-0.2-1.8,1.1-3.5,2.9-3.8l18.3-6.1c5.9-1.1,10.5,6,11.3,12
		c0.9,6.6,1.8,14.8,1.4,19.8c-0.8,10.1-8.4,12-8.4,12s0.6,8.8,1.1,17.1c0,1.1-0.8,2-1.9,2.1c-0.2,0-0.4,0-0.7-0.1L354.7,171.9z"/>
	<path class="st6" d="M380.5,134.1c0.1,0.7-0.4,1.3-1.1,1.4c-0.7,0.1-1.3-0.3-1.4-1c0,0,0,0,0,0c-0.1-0.7,0.4-1.3,1.1-1.4
		C379.7,133,380.4,133.5,380.5,134.1C380.5,134.1,380.5,134.1,380.5,134.1z"/>
	<path class="st6" d="M367.4,135.1c0.1,0.7-0.4,1.3-1.1,1.4c-0.7,0.1-1.3-0.3-1.4-1c-0.1-0.7,0.4-1.3,1.1-1.4c0,0,0,0,0,0
		C366.7,134,367.3,134.4,367.4,135.1C367.4,135.1,367.4,135.1,367.4,135.1z"/>
	<path class="st6" d="M380.6,131.3c-0.1,0.2-1.2-0.4-2.6-0.3s-2.3,1-2.5,0.8s0-0.4,0.5-0.8c0.6-0.5,1.3-0.8,2-0.9
		c0.7-0.1,1.4,0.1,2.1,0.4C380.5,131,380.6,131.2,380.6,131.3z"/>
	<path class="st6" d="M367.5,132.7c-0.1,0.2-1.2-0.5-2.6-0.4s-2.3,0.9-2.5,0.7s0.1-0.4,0.5-0.7c0.6-0.5,1.3-0.7,2-0.8
		c0.7,0,1.4,0.1,2,0.5C367.4,132.3,367.6,132.6,367.5,132.7z"/>
	<path class="st6" d="M373,142.9c0.7-0.3,1.5-0.5,2.2-0.6c0.4-0.1,0.7-0.2,0.7-0.4c0-0.4-0.1-0.7-0.3-1l-1.2-2.6
		c-1.7-3.7-3-6.8-2.9-6.9s1.7,2.9,3.4,6.6l1.2,2.6c0.3,0.4,0.3,0.9,0.3,1.4c-0.1,0.3-0.3,0.5-0.5,0.6c-0.2,0.1-0.4,0.1-0.6,0.1
		C374.5,142.9,373.8,143,373,142.9z"/>
	<path class="st12" d="M375.2,159.2c-4.7,0.4-9.4-0.5-13.7-2.6c0,0,3.9,6.7,13.9,5L375.2,159.2z"/>
	<path class="st12" d="M372.7,146.3c-0.6-0.6-1.5-0.9-2.3-0.8c-0.6,0.1-1.2,0.5-1.5,1c-0.3,0.5-0.3,1.2,0,1.7
		c0.5,0.5,1.2,0.6,1.9,0.3c0.6-0.3,1.2-0.7,1.7-1.2c0.1-0.1,0.3-0.3,0.4-0.4c0.1-0.2,0.1-0.4,0-0.5"/>
	<path class="st6" d="M369,144.2c0.2,0,0.3,1.5,1.7,2.4s3,0.7,3,0.9s-0.3,0.3-1,0.4c-0.9,0.1-1.8-0.2-2.5-0.7
		c-0.7-0.5-1.2-1.2-1.3-2C368.8,144.6,368.9,144.2,369,144.2z"/>
	<path class="st6" d="M367.7,130.6c-0.1,0.4-1.5,0.3-3.1,0.6s-2.9,0.9-3.1,0.5c-0.1-0.1,0.1-0.5,0.6-0.9c1.4-1,3.1-1.3,4.7-0.9
		C367.4,130.1,367.7,130.4,367.7,130.6z"/>
	<path class="st6" d="M380,127.8c-0.2,0.3-1.2,0.1-2.4,0.2s-2.1,0.4-2.3,0.1c-0.1-0.2,0-0.5,0.4-0.8c0.5-0.4,1.2-0.6,1.9-0.7
		c0.7,0,1.3,0.1,1.9,0.5C379.9,127.3,380.1,127.7,380,127.8z"/>
	<path class="st11" d="M352.4,138.4c-0.1-0.1-5.5-2-5.1,4s6.3,4.4,6.3,4.2S352.4,138.4,352.4,138.4z"/>
	<path class="st12" d="M351.6,144.5c0,0-0.1,0.1-0.3,0.2c-0.2,0.1-0.5,0.1-0.8,0.1c-0.8-0.4-1.3-1.3-1.4-2.2c0-0.5,0-1,0.2-1.5
		c0.1-0.4,0.4-0.7,0.7-0.9c0.2-0.1,0.5,0,0.6,0.2c0.1,0.2,0.1,0.3,0.1,0.3s0.1-0.1,0.1-0.4c0-0.1-0.1-0.3-0.3-0.4
		c-0.2-0.1-0.4-0.2-0.6-0.1c-0.5,0.1-0.9,0.5-1,1c-0.2,0.5-0.3,1.1-0.2,1.7c0,1.1,0.7,2.1,1.7,2.5c0.3,0.1,0.7,0,1-0.2
		C351.6,144.6,351.7,144.5,351.6,144.5z"/>
	<path class="st6" d="M372.7,112.3c3.5,1.5,5.4,8.2,4.2,11.8s-4.7,5.6-8.3,6.7c-3.5,1.1-7.3,1.4-10.9,0.7c-0.1,2.5-1.3,5.1-3.6,5.9
		c-3.1,1.1-6.4-1.5-7.4-4.6s-0.1-6.4,0.7-9.6"/>
	<path class="st6" d="M347.9,136c0,0,0.2,0.2,0.5,0.4s0.8,0.6,1.5,0.9c0.8,0.5,1.6,0.8,2.4,1c1.1,0.2,2.2,0.1,3.2-0.3
		c1-0.5,1.8-1.3,2.2-2.3c0.4-0.8,0.6-1.6,0.7-2.5c0.1-0.6,0.1-1.2,0-1.7c0-0.2-0.1-0.4-0.1-0.6c-0.1,0,0.1,0.9-0.1,2.4
		c-0.1,0.8-0.3,1.6-0.7,2.4c-0.5,0.9-1.2,1.6-2.1,2.1c-0.9,0.4-2,0.5-3,0.3c-0.8-0.2-1.6-0.5-2.4-0.9
		C348.7,136.5,347.9,136,347.9,136z"/>
	<path class="st8" d="M346.2,121.4c0,0,0.1-0.3,0.3-0.9c0.3-0.8,0.8-1.5,1.4-2.1c0.9-0.9,2-1.6,3.2-2c1.5-0.5,3-0.9,4.6-1.1
		c2.9-0.4,5.6-1.2,8.3-2.3c1-0.4,1.8-0.8,2.4-1.1l0.6-0.3c0.1,0,0.2-0.1,0.2-0.1l-0.2,0.1l-0.6,0.3c-0.6,0.3-1.4,0.6-2.4,1
		c-2.7,1-5.5,1.8-8.3,2.2c-1.6,0.2-3.1,0.6-4.6,1.1c-1.2,0.5-2.3,1.2-3.3,2.1c-0.6,0.6-1.1,1.4-1.4,2.2c-0.1,0.2-0.1,0.5-0.2,0.7
		L346.2,121.4z"/>
	<path class="st8" d="M345,144.3c0,0-0.1-0.1-0.3-0.2c-0.3-0.2-0.5-0.5-0.7-0.7c-0.8-1-1.3-2.2-1.5-3.5c-0.3-1.9,0-3.9,1-5.7
		c0.5-1.1,1.2-2,2-2.9c0.9-1,2-1.7,3.3-2l-0.2,0.3c-0.9-2.7,0-5.7,2.1-7.6c1.4-1.1,3.2-1.8,5-1.9c1.7-0.2,3.3-0.4,4.8-0.8
		c2.7-0.5,5.2-1.7,7.3-3.6c1.4-1.3,2.3-2.9,2.8-4.7c0.1-0.7,0.3-1.3,0.3-2c0,0.2,0.1,0.4,0,0.5c0,0.5-0.1,1-0.2,1.5
		c-0.4,1.9-1.4,3.6-2.8,4.9c-2.1,1.9-4.6,3.2-7.4,3.8c-1.5,0.4-3.2,0.5-4.9,0.8c-1.7,0.2-3.4,0.8-4.7,1.8c-2,1.7-2.8,4.5-2,7
		l0.1,0.3h-0.3c-1.2,0.3-2.3,0.9-3.1,1.8c-0.8,0.8-1.5,1.8-2,2.8c-0.9,1.7-1.2,3.6-1,5.4c0.2,1.2,0.6,2.4,1.3,3.4
		C344.6,143.9,345,144.2,345,144.3z"/>
	<path class="st6" d="M375.1,159.2c0,0,1.1,15.1,1.9,22.8c0.3,2.6,0.6,5.4,2.2,7.5c2.8,3.5,7.8,4.3,11.5,1.8
		c3.5-2.8,4.5-7.7,2.2-11.6c-0.8-1.3-2-2.8-1.3-4.1c0.3-0.5,0.7-0.9,1.1-1.3c2.1-2.2,1.4-5.8,0.1-8.6c-0.3-0.7-0.8-1.3-1.4-1.6
		c-0.8-0.3-1.6,0-2.4-0.2c-1.7-0.5-1.8-2.8-2.2-4.5c-0.6-2.5-2.6-5.2-5.1-5.6C381.7,153.8,379.2,157.9,375.1,159.2z"/>
	<path class="st8" d="M392.8,173.4c0.5-1.1,0.7-2.3,0.9-3.6c0.1-1.3-0.2-2.6-0.7-3.8c-0.7-1.5-1.7-2.7-3.1-3.6
		c-0.7-0.5-1.5-0.8-2.2-1.3c-0.4-0.3-0.6-0.6-0.8-1c-0.2-0.4-0.3-0.8-0.3-1.2c0-0.7,0-1.4-0.2-2.1c-0.2-0.6-0.5-1.1-1-1.5
		c-0.8-0.8-1.6-1.3-2-1.9c-0.2-0.2-0.4-0.5-0.5-0.9c0,0,0.2,0.3,0.7,0.7s1.2,0.9,2.1,1.7c0.5,0.4,0.9,1,1.1,1.6
		c0.2,0.7,0.2,1.5,0.2,2.2c0,0.7,0.3,1.4,0.9,1.9c0.6,0.5,1.4,0.8,2.2,1.3c1.4,0.9,2.6,2.3,3.2,3.8c0.5,1.3,0.8,2.6,0.6,4
		c-0.1,0.9-0.3,1.8-0.7,2.7C393.2,172.8,393,173.1,392.8,173.4z"/>
	<path class="st8" d="M386.6,192.7c0-0.1,0.5-0.3,1.2-1c1-1,1.8-2.3,2.3-3.6c0.7-2,0.6-4.2-0.3-6.2c-1-2.2-3-4-4.9-6.2
		c-0.9-1-1.7-2.2-2.3-3.5c-0.6-1.2-0.8-2.5-0.7-3.9c0.1-1.3,0.5-2.4,0.7-3.4c0.2-1,0.2-2,0-2.9c-0.3-1.4-0.9-2.7-1.8-3.9
		c-0.7-0.8-1.1-1.1-1.1-1.2s0.1,0.1,0.4,0.2c0.3,0.2,0.6,0.5,0.9,0.8c1.7,1.9,2.5,4.5,2.1,7c-0.2,1.1-0.5,2.2-0.6,3.4
		c-0.1,1.2,0.1,2.5,0.7,3.6c0.6,1.2,1.4,2.3,2.3,3.4c1.8,2.1,3.9,4,4.9,6.3c0.9,2.1,1,4.4,0.2,6.5c-0.5,1.4-1.4,2.7-2.5,3.7
		c-0.3,0.3-0.6,0.5-1,0.7C386.9,192.6,386.8,192.7,386.6,192.7z"/>
	<path class="st11" d="M346.7,208.2l3.8-36.7l11,4.5l0.9,37.4c0,0-3.6,5.3-9.5,3C349.4,215.1,347,211.9,346.7,208.2z"/>
	<polygon class="st6" points="349.8,139.3 370.1,157.7 366.2,171.2 364.7,171.6 347,152.9 348.3,139.7 	"/>
	<polygon class="st8" points="348.3,139.7 368.6,158.1 364.7,171.6 345.5,153.3 	"/>
	<path class="st11" d="M361.9,177.2c1.3-1.4,2-3.1,2.1-5c0-2.8-0.7-9.5-0.7-9.5s3.7-7.5,3.6-8.5s-0.2-1-1.5-0.6s-5.4,7.2-5.4,7.2
		l-1.2-5.1c0,0,3.4-5.3,3.7-6s0.7-1.4-0.1-1.4s-7.1,5.9-7.1,5.9l0.4,5.6c0,0-0.1,0.4-1-0.4s-0.6-7.4-0.6-7.4s2.2-3.9,2.1-4.5
		s0.4-1.2,0-2.2s-1.6,0.1-1.6,0.1l-4.2,5.4l-1.4-5.4c0,0,0.1-1.1-1.4-1.2l0.3,17.4l3.6,13.3L361.9,177.2z"/>
	<path class="st12" d="M362.4,213.4c0,0,0-0.2,0-0.7s0-1.1-0.1-1.9c0-1.7-0.1-4.2-0.2-7.3c-0.2-6.3-0.4-15.4-0.7-26.3v-0.1l0.1-0.1
		c0.9-0.8,1.6-1.7,2-2.8c0.4-1.2,0.6-2.4,0.5-3.6c-0.1-2.6-0.4-5.2-0.7-7.9v-0.1v-0.1c0.7-1.4,1.4-2.9,2.1-4.4
		c0.3-0.8,0.7-1.5,1-2.3c0.1-0.4,0.3-0.8,0.4-1.2l0.1-0.3c0-0.1,0-0.1,0-0.2c0-0.2,0-0.4-0.1-0.5c0-0.1-0.5,0-0.9,0.1
		c-0.2,0-0.3,0.1-0.5,0.2c-0.2,0.1-0.3,0.3-0.5,0.4c-0.6,0.6-1.1,1.3-1.6,2c-1,1.4-2,2.9-2.9,4.5l-0.3,0.5l-0.1-0.6
		c-0.4-1.6-0.8-3.4-1.2-5.1v-0.1l0.1-0.1l1.7-2.7c0.6-1.1,1.4-2.2,1.9-3.2c0.1-0.3,0.3-0.6,0.3-0.9s0-0.2,0-0.2c-0.1,0-0.2,0-0.2,0
		c-0.1,0-0.2,0.1-0.3,0.1c-0.1,0.1-0.2,0.2-0.4,0.2s-0.5,0.4-0.7,0.6c-1.9,1.5-3.7,3.2-5.5,4.8l0.1-0.2c0.1,1.9,0.3,3.8,0.4,5.6l0,0
		l0,0c-0.1,0.2-0.3,0.3-0.5,0.3c-0.1,0-0.2-0.1-0.4-0.1c-0.2-0.1-0.3-0.2-0.5-0.4c-0.3-0.3-0.5-0.7-0.5-1.1
		c-0.1-0.7-0.2-1.5-0.2-2.2c0-1.5,0-2.9,0-4.3l0,0v-0.1c0.8-1.3,1.5-2.7,2.1-4.1c0-0.1,0-0.1,0-0.2c0-0.1,0-0.2,0-0.3
		s0.1-0.4,0.1-0.6c0.1-0.3,0.1-0.7,0-1c-0.1-0.4-0.2-0.5-0.5-0.5c-0.3,0.1-0.6,0.2-0.8,0.5l0,0l-4.2,5.4l-0.3,0.4l-0.1-0.4
		c-0.5-1.9-0.9-3.7-1.4-5.4v-0.1c0-0.3-0.1-0.6-0.4-0.7c-0.3-0.2-0.5-0.2-0.8-0.2l0.2-0.2c0.1,7.1,0.2,12.9,0.3,17.4l0,0
		c0.8,3.2,1.4,5.7,1.8,7.4c0.2,0.8,0.3,1.5,0.4,1.9s0.1,0.7,0.1,0.7s-0.1-0.2-0.2-0.6l-0.5-1.9c-0.5-1.7-1.1-4.2-1.9-7.4l0,0l0,0
		c-0.1-4.4-0.2-10.3-0.4-17.4V144h0.2c0.4,0,0.7,0.1,1.1,0.3c0.4,0.2,0.6,0.7,0.5,1.1v-0.1l1.4,5.4l-0.4-0.1l4.2-5.4l0,0l0,0
		c0.3-0.3,0.7-0.5,1.1-0.6c0.3,0,0.5,0,0.7,0.2c0.2,0.2,0.3,0.4,0.3,0.6c0.1,0.4,0.1,0.8,0,1.2c0,0.2-0.1,0.4-0.1,0.5
		c0,0.1,0,0.2,0,0.2c0,0.1,0,0.2-0.1,0.4c-0.6,1.4-1.3,2.9-2.1,4.2V152c0,1.4-0.1,2.8,0,4.3c0,0.7,0.1,1.4,0.2,2.1
		c0,0.3,0.2,0.6,0.4,0.9c0.1,0.1,0.3,0.2,0.4,0.3c0.1,0,0.1,0,0.2,0.1l0,0c0,0,0,0,0,0.1l0,0l0,0l0,0h-0.1l0,0v0.1
		c-0.1-1.8-0.3-3.7-0.4-5.6V154l0.1-0.1c1.8-1.6,3.6-3.3,5.5-4.9l0.8-0.6c0.1-0.1,0.3-0.2,0.4-0.3c0.2-0.1,0.4-0.2,0.6-0.2
		c0.2,0,0.4,0.1,0.6,0.2c0.2,0.2,0.2,0.5,0.1,0.7c-0.1,0.4-0.2,0.6-0.4,0.9c-0.6,1.2-1.3,2.2-2,3.3l-1.7,2.7v-0.2l1.2,5.1l-0.5-0.1
		c0.9-1.6,1.9-3.1,2.9-4.5c0.5-0.7,1.1-1.4,1.6-2.1c0.2-0.2,0.3-0.3,0.5-0.5c0.2-0.2,0.4-0.3,0.7-0.3c0.2-0.1,0.4-0.1,0.7-0.2
		c0.1,0,0.3,0,0.4,0c0.2,0,0.3,0.2,0.4,0.3c0.1,0.2,0.1,0.5,0.1,0.7c0,0.1,0,0.3,0,0.4l-0.1,0.3c-0.1,0.4-0.3,0.8-0.4,1.2
		c-0.3,0.8-0.6,1.6-1,2.3c-0.7,1.5-1.4,3-2.1,4.4v-0.1c0.3,2.7,0.6,5.4,0.7,8c0.1,1.3-0.1,2.6-0.5,3.8c-0.5,1.2-1.2,2.2-2.2,3
		l0.1-0.2c0.2,11,0.4,20,0.5,26.3c0,3.1,0.1,5.6,0.1,7.3c0,0.8,0,1.5,0,1.9S362.4,213.4,362.4,213.4z"/>
	<path class="st12" d="M351.1,160.2c-0.4-1.6-0.6-3.2-0.6-4.8c-0.2-1.6-0.2-3.2,0-4.8c0.4,1.6,0.5,3.2,0.6,4.8
		C351.3,157,351.3,158.6,351.1,160.2z"/>
</g>
<g id="freepik--Plant--inject-2">
	<path class="st7" d="M115.9,365c13.6-13.6,33.4-19,52-14.3c-15.5,10.6-33.8,16.3-52.6,16.4"/>
	<path class="st7" d="M133.5,302.6c-2.2-15.3,3.8-32.5,15.2-43.7C149.2,274,142.8,291.1,133.5,302.6"/>
	<path class="st7" d="M124.3,331.5c8.3-15.7,21.5-28.3,37.6-35.9c-5.1,18-19.5,31.8-37.7,36.1"/>
	<path class="st7" d="M122.4,337.1c9.3,0.3,18.6-0.1,27.6-2.4s17.5-6.9,23.5-14c-18.1,0.1-35.8,5.5-50.9,15.5"/>
	<path class="st7" d="M127.2,318.7c-4.7-17.6-12.4-29.8-26.3-39.6C98.7,296.9,109.8,313.7,127.2,318.7"/>
	<path class="st7" d="M92.2,349c-0.1-10.5,6.2-20,15.8-24.1C107.3,334,100.2,344.5,92.2,349"/>
	<path class="st7" d="M87.8,334.2c-1.3-15-11.2-28-25.4-33.1C65.6,315.8,74.1,328.1,87.8,334.2"/>
	<path class="st7" d="M94.5,360.5c-3.3-4.7-8.6-7.6-14.1-9s-11.3-1.6-17-1.7c7.9,8.5,19.1,13.2,30.6,12.7"/>
	<path class="st7" d="M101.1,398c-21.5-6.6-44.5,4.3-53,25.1C67.4,419.5,86.4,411,101.1,398"/>
	<path class="st7" d="M122.2,385c-3.2,9.5-2.6,20.9,4.5,29.1C129.6,404.2,128,393.5,122.2,385"/>
	<path class="st7" d="M134.7,379.8c1.1,12.4,8.5,23.4,19.7,28.9c0.5,0.3,1.1,0.4,1.7,0.3c0.9-0.4,0.9-1.5,0.8-2.5
		C155.6,394.3,146.6,382.6,134.7,379.8"/>
	<path class="st7" d="M142.9,378.5c11,11.8,29.4,12.5,41.3,1.6c0.5-0.4,0.9-0.9,1.4-1.4C172,377.3,156.3,376.3,142.9,378.5"/>
	<path class="st6" d="M144.9,270.2c0,0.1-0.1,0.3-0.1,0.4c-0.1,0.3-0.2,0.7-0.4,1.1c-0.4,1-0.9,2.5-1.6,4.4s-1.6,4.2-2.5,7
		c-0.5,1.4-1,2.8-1.6,4.4l-1.7,4.9c-2.4,6.9-5.1,15.1-7.9,24.3s-5.8,19.3-8.7,30s-5.4,21-7.6,30.4s-3.9,17.9-5.2,25
		c-0.3,1.8-0.7,3.5-1,5.1s-0.5,3.1-0.8,4.6c-0.5,2.8-0.9,5.3-1.2,7.3s-0.6,3.5-0.7,4.6c-0.1,0.5-0.2,0.9-0.2,1.2
		c0,0.1,0,0.3-0.1,0.4c0-0.1,0-0.3,0-0.4c0-0.3,0.1-0.7,0.1-1.2c0.2-1.1,0.3-2.6,0.6-4.6s0.6-4.5,1.1-7.3c0.2-1.4,0.5-3,0.7-4.6
		s0.6-3.3,0.9-5.1c1.3-7.2,3.1-15.6,5.1-25s4.7-19.6,7.6-30.4s5.9-20.9,8.8-30s5.6-17.4,8.1-24.2l1.7-4.9l1.6-4.3
		c1-2.7,1.9-5,2.6-6.9s1.3-3.3,1.7-4.4c0.2-0.5,0.4-0.9,0.5-1.1L144.9,270.2z"/>
	<path class="st6" d="M70.5,308.9l0.2,0.2l0.7,0.7c0.6,0.6,1.4,1.5,2.4,2.7c2.9,3.4,5.6,6.9,8,10.6c3.6,5.5,6.4,11.5,8.3,17.8
		c2.2,7.1,3.6,15.2,5,23.6c2.8,16.9,6.1,32,8.6,43l2.9,13c0.3,1.5,0.6,2.7,0.8,3.5c0.1,0.4,0.2,0.7,0.2,0.9c0,0.1,0,0.2,0,0.3
		c0-0.1-0.1-0.2-0.1-0.3c-0.1-0.2-0.1-0.5-0.2-0.9l-0.9-3.5c-0.7-3.1-1.8-7.5-3.1-12.9c-2.5-10.9-6-26.1-8.7-43
		c-1.4-8.4-2.8-16.5-5-23.6c-1.9-6.3-4.7-12.3-8.2-17.8c-2.4-3.7-5-7.3-7.8-10.7c-1-1.2-1.8-2.1-2.3-2.8l-0.6-0.7
		C70.5,309.1,70.5,309,70.5,308.9z"/>
	<path class="st6" d="M146.9,378c-0.2,0.1-0.3,0.1-0.5,0.1l-1.4,0.2l-1,0.1l-1.2,0.2c-0.9,0.1-1.8,0.2-2.9,0.5l-1.7,0.3l-1.8,0.5
		c-1.2,0.3-2.6,0.7-3.9,1.2c-3,1-5.8,2.3-8.6,3.8c-2.7,1.5-5.3,3.3-7.7,5.4c-1.1,0.9-2.1,1.8-3,2.8c-0.8,0.9-1.6,1.8-2.3,2.7
		c-0.6,0.8-1.2,1.6-1.7,2.4c-0.4,0.6-0.8,1.2-1.2,1.9l-0.7,1.2c-0.1,0.1-0.2,0.3-0.3,0.4c0-0.2,0.1-0.3,0.2-0.5l0.6-1.3
		c0.4-0.7,0.8-1.4,1.2-2c0.5-0.8,1.1-1.7,1.7-2.5c0.7-1,1.5-1.9,2.3-2.8c0.9-1,1.9-2,3-2.9c2.4-2.1,5-3.9,7.8-5.4
		c2.8-1.5,5.7-2.8,8.7-3.8c1.4-0.4,2.7-0.9,4-1.1l1.8-0.4l1.7-0.3c1.1-0.2,2.1-0.3,2.9-0.4l1.2-0.1l1,0l1.4-0.1
		C146.7,377.9,146.8,378,146.9,378z"/>
	<path class="st6" d="M150.8,309.3c-0.3,0.4-0.6,0.7-1,0.9l-2.8,2.4c-2.4,2-5.7,4.8-9.3,7.8s-7,5.8-9.4,7.7l-2.9,2.3
		c-0.3,0.3-0.7,0.6-1.1,0.8c0.3-0.4,0.6-0.7,1-1l2.8-2.4c2.4-2,5.7-4.8,9.3-7.8s7-5.8,9.4-7.7l2.9-2.3
		C150,309.8,150.4,309.5,150.8,309.3z"/>
	<path class="st6" d="M154.1,327.2c0,0.1-7.1,2.4-15.9,5s-16,4.6-16,4.5s7.1-2.4,15.9-5S154.1,327.1,154.1,327.2z"/>
	<path class="st6" d="M127.9,320.1c-0.3-0.3-0.5-0.6-0.7-1l-1.9-2.9c-1.6-2.4-3.9-5.7-6.5-9.2s-5.2-6.5-7.1-8.7
		c-0.9-1-1.7-1.9-2.3-2.6c-0.3-0.3-0.6-0.6-0.8-1c0.3,0.3,0.6,0.5,0.9,0.9c0.6,0.6,1.4,1.4,2.4,2.5c2,2.1,4.6,5.1,7.3,8.6
		c2.3,3,4.4,6.1,6.4,9.3c0.8,1.2,1.4,2.2,1.7,3C127.5,319.3,127.7,319.7,127.9,320.1z"/>
	<path class="st6" d="M103.1,330c-0.5,0.9-1.1,1.9-1.7,2.7c-1.1,1.7-2.5,4-4,6.6s-2.8,5.1-3.7,6.8c-0.4,1-0.9,1.9-1.5,2.8
		c0.3-1,0.7-2,1.2-3c0.8-1.8,2-4.3,3.5-6.9s3-5,4.1-6.6C101.7,331.6,102.4,330.8,103.1,330z"/>
	<path class="st6" d="M94.7,361c0,0.1-1.4-0.6-3.6-1.6s-5.3-2.3-8.8-3.5s-6.8-2.1-9.1-2.8s-3.8-0.9-3.8-1c0.4,0,0.7,0,1.1,0.1
		c0.7,0.1,1.7,0.3,2.8,0.5c3.1,0.7,6.2,1.5,9.2,2.6c3,1,6,2.3,8.8,3.7c1.1,0.5,2,1,2.6,1.4C94.1,360.6,94.4,360.8,94.7,361z"/>
	<path class="st6" d="M101.3,398.1c-0.1,0.1-0.3,0.1-0.4,0.1l-1.3,0.3l-4.7,1.1c-5.2,1.1-10.4,2.5-15.5,4.1c-5.1,1.7-9.9,4-14.4,6.8
		c-1.7,1.1-3.1,2.1-4,2.8c-0.5,0.4-0.9,0.7-1.4,1.1c0.1-0.1,0.2-0.2,0.3-0.3c0.2-0.2,0.5-0.5,1-0.9c1.2-1,2.5-2,3.9-2.9
		c4.5-2.9,9.4-5.3,14.5-7c5.1-1.6,10.3-3,15.6-4l4.8-0.9C100.1,398.2,100.7,398.1,101.3,398.1z"/>
	<path class="st6" d="M125.4,407.2c-0.1,0-1-5-1.9-11.1s-1.5-11.2-1.4-11.2s1,5,1.9,11.2S125.6,407.2,125.4,407.2z"/>
	<path class="st6" d="M150.5,398.1c-0.8-0.8-1.6-1.7-2.3-2.7c-1.4-1.7-3.2-4-5.4-6.5s-4.1-4.8-5.5-6.4c-0.8-0.8-1.6-1.7-2.2-2.7
		c0.3,0.2,0.5,0.4,0.7,0.6c0.4,0.4,1.1,1,1.8,1.8c1.5,1.6,3.5,3.8,5.6,6.3s4,4.9,5.2,6.6c0.6,0.9,1.1,1.6,1.5,2.1
		C150.2,397.6,150.4,397.9,150.5,398.1z"/>
	<polygon class="st8" points="84.2,421.4 84.2,433.8 87.2,433.8 98.2,468.5 122.7,468.5 133.3,434.1 137.5,433.8 137.5,421.4 	"/>
	<path class="st6" d="M135.4,434.1c0,0.1-10.8,0.2-24.1,0.2s-24.1-0.1-24.1-0.2s10.8-0.3,24.1-0.3S135.4,434,135.4,434.1z"/>
	<path class="st6" d="M153,354.5c-0.5,0.2-1,0.3-1.6,0.4l-4.3,1c-3.6,0.9-8.6,2.3-13.9,4.1s-10.2,3.7-13.6,5.2l-4,1.8
		c-0.5,0.2-1,0.4-1.5,0.6c0.5-0.3,0.9-0.6,1.4-0.8c0.9-0.5,2.3-1.1,4-1.9c4.4-2,8.9-3.8,13.5-5.3c4.6-1.5,9.3-2.9,14-3.9
		c1.8-0.4,3.3-0.7,4.3-0.9C151.9,354.6,152.4,354.5,153,354.5z"/>
	<path class="st5" d="M127.3,453.4c0,0.1-7.6,0.3-16.9,0.3s-16.9-0.1-16.9-0.3s7.6-0.3,16.9-0.3S127.3,453.3,127.3,453.4z"/>
	<path class="st5" d="M128.2,450.5c0,0.1-8,0.3-17.9,0.3s-17.9-0.1-17.9-0.3s8-0.3,17.9-0.3S128.2,450.4,128.2,450.5z"/>
</g>
<g id="freepik--speech-bubble--inject-2">
	<path class="st3" d="M397,140.5l6.2-10.8c-8.4-13.6-4.2-31.5,9.4-39.9s31.5-4.2,39.9,9.4c8.4,13.6,4.2,31.5-9.4,39.9
		c-10.3,6.3-23.4,5.7-32.9-1.7l0,0L397,140.5z"/>
	<path class="st6" d="M397,140.5l13.1-3.2l-0.1,0.2l0,0c0-0.1,0-0.1,0-0.2c0.1,0,0.1,0,0.2,0c4,3.1,8.8,5.1,13.9,5.7
		c1.5,0.2,3,0.3,4.5,0.2c0.8,0,1.6-0.1,2.4-0.1l2.4-0.4c7.2-1.4,13.6-5.6,17.9-11.5c2.4-3.3,4-7.1,4.8-11.1
		c0.8-4.2,0.7-8.6-0.4-12.7c-1.1-4.3-3.2-8.4-6.1-11.8c-3-3.5-6.8-6.2-11-7.9c-4.1-1.6-8.5-2.3-12.8-2c-4.1,0.3-8.2,1.5-11.8,3.5
		c-6.5,3.6-11.4,9.6-13.6,16.7c-0.9,3-1.3,6.2-1.3,9.3c0.1,5,1.6,10,4.2,14.3c0,0,0,0.1,0,0.1L397,140.5c0.4-0.8,2.2-4.1,6-10.9v0.1
		c-2.7-4.3-4.2-9.3-4.4-14.4c-0.1-3.2,0.4-6.4,1.3-9.5c1.1-3.4,2.7-6.6,5-9.4c2.4-3.1,5.4-5.7,8.9-7.6c3.7-2.1,7.8-3.3,12-3.6
		c4.4-0.3,8.9,0.4,13,2c4.3,1.7,8.2,4.5,11.2,8c3,3.4,5.1,7.6,6.2,12c1.1,4.2,1.2,8.7,0.3,12.9c-0.8,4.1-2.5,7.9-4.9,11.2
		c-4.4,6.1-10.9,10.2-18.2,11.7l-2.5,0.4c-0.8,0.1-1.6,0.1-2.4,0.1c-1.5,0.1-3.1,0-4.6-0.2c-5.1-0.7-9.9-2.7-14-5.9l0.2-0.2l0,0
		c0,0.1,0,0.1,0,0.2h0L397,140.5z"/>
	<path class="st6" d="M420.1,113.9c0,1.4-1.1,2.5-2.5,2.5c-1.4,0-2.5-1.1-2.5-2.5c0-1.4,1.1-2.5,2.5-2.5S420.1,112.5,420.1,113.9
		C420.1,113.9,420.1,113.9,420.1,113.9z"/>
	<path class="st6" d="M430.1,113.9c0,1.4-1.1,2.5-2.5,2.5c-1.4,0-2.5-1.1-2.5-2.5c0-1.4,1.1-2.5,2.5-2.5
		C429,111.4,430.1,112.5,430.1,113.9C430.1,113.9,430.1,113.9,430.1,113.9z"/>
	<path class="st6" d="M440.1,112.6c0.7,1.2,0.3,2.7-0.9,3.4c-1.2,0.7-2.7,0.3-3.4-0.9c-0.7-1.2-0.3-2.7,0.9-3.4c0,0,0,0,0,0
		C437.9,111,439.5,111.4,440.1,112.6z"/>
</g>
</svg>
